<svg width="95" height="95" viewBox="0 0 95 95" fill="none" xmlns="http://www.w3.org/2000/svg">
<path fill-rule="evenodd" clip-rule="evenodd" d="M50.143 75.4327C59.9529 74.7649 69.9666 71.8655 75.6824 64.6514C81.6519 57.1171 82.0432 47.4795 79.1531 38.8181C76.1256 29.7452 70.3273 20.6794 60.1061 17.9719C50.2108 15.3507 40.4261 21.0078 31.7164 26.2525C23.5399 31.1762 15.3203 37.1119 14.019 45.7244C12.714 54.3601 18.3086 62.2458 25.3968 68.075C32.0752 73.5674 40.9277 76.0601 50.143 75.4327Z" fill="#00A88F"/>
<path d="M44.0531 24.5587L38.9551 16.9116L43.4159 16.2744L52.3374 17.5489L58.71 25.1959L59.3472 30.294L49.7884 29.0195L44.0531 24.5587Z" fill="#008060"/>
<path d="M33.8595 61.6669L32.585 45.1963L33.2222 40.4904L37.0457 34.608L45.3301 32.8433L58.7124 35.7845L70.183 32.8433L79.7418 34.0198L83.5654 40.4904L84.8399 53.4316L82.2908 64.608L77.1928 74.608L71.4575 78.1374L57.4379 76.3727L46.6046 78.7257L39.5948 74.0198L33.8595 61.6669Z" fill="#FF0003"/>
<path d="M69.9324 73.1214C69.3394 73.1214 68.7618 72.837 68.4408 72.3229C67.9584 71.5531 68.2334 70.5635 69.0568 70.1126C69.066 70.1068 70.0383 69.5539 71.3302 67.177C73.4439 63.2922 74.404 58.7064 74.8357 55.5397C74.9586 54.655 75.8296 54.0259 76.7697 54.1423C77.7159 54.2557 78.3857 55.0657 78.2643 55.9504C77.7958 59.3685 76.7497 64.3449 74.4102 68.6419C72.8725 71.4669 71.49 72.5225 70.8018 72.8988C70.5314 73.0496 70.2319 73.1214 69.9324 73.1214Z" fill="black" stroke="black" stroke-width="0.5"/>
<path d="M82.1066 35.3909C79.6288 32.9881 76.1755 31.7703 71.8421 31.7703C67.4488 31.7703 63.0938 33.0327 60.4072 33.9963C60.9064 31.0479 62.719 26.33 69.1355 25.0604C70.0694 24.8752 70.6654 24.0178 70.4688 23.146C70.2707 22.2714 69.3459 21.7113 68.4196 21.8994C64.9526 22.5859 62.464 24.114 60.6883 25.9796C58.7236 21.1598 53.8694 15 44.7063 15C42.8584 15 40.8814 15.2485 38.8322 15.7411C38.3575 15.8545 37.9581 16.1504 37.7308 16.5554C37.5034 16.9604 37.4696 17.4358 37.6386 17.8652C37.8537 18.4081 43.035 31.1642 55.7189 31.1656H55.7219C56.3487 31.1656 56.9846 31.1268 57.6283 31.0622C57.2642 32.1135 57.0277 33.1447 56.8986 34.1026C54.2427 33.1289 49.7249 31.7703 45.1672 31.7703C40.8338 31.7703 37.379 32.9881 34.9027 35.3923C29.1576 40.9661 30.236 58.9384 35.1485 69.7399C38.2008 76.4512 42.4114 80 47.3254 80C47.4483 80 47.5712 79.9885 47.6926 79.9641C47.7632 79.9497 54.9093 78.5078 58.5054 78.5078C62.1015 78.5078 69.2445 79.9483 69.3167 79.9641C69.4365 79.9885 69.5594 80 69.6823 80C74.5964 80 78.8085 76.4526 81.8608 69.7399C86.7718 58.937 87.8517 40.9661 82.1066 35.3909ZM55.7173 27.9342C47.9629 27.9342 43.479 21.605 41.7324 18.4669C42.7631 18.3104 43.757 18.23 44.7033 18.23C53.2534 18.23 56.596 24.7287 57.6989 27.805C57.0246 27.8911 56.3625 27.9342 55.7173 27.9342ZM78.6794 68.4732C77.2892 71.5323 74.3045 76.6365 69.8528 76.7643C68.6193 76.5216 62.1599 75.275 58.5039 75.275C54.8479 75.275 48.3854 76.5216 47.1549 76.7657C42.7017 76.6379 39.7185 71.5323 38.3283 68.4761C33.2637 57.3371 33.5095 41.3998 37.3913 37.6342C39.1916 35.8863 41.8077 35.0017 45.1672 35.0017C51.2887 35.0017 57.6713 37.93 57.7358 37.9602C58.2228 38.1857 58.7927 38.1842 59.2766 37.9602C59.3395 37.93 65.6976 35.0017 71.8437 35.0017C75.2032 35.0017 77.8192 35.8863 79.6196 37.6342C83.4983 41.3998 83.7441 57.3371 78.6794 68.4732Z" fill="black"/>
<path d="M55.7173 27.9342C47.9629 27.9342 43.479 21.605 41.7324 18.4669C42.7631 18.3104 43.757 18.23 44.7033 18.23C53.2534 18.23 56.596 24.7287 57.6989 27.805C57.0246 27.8911 56.3625 27.9342 55.7173 27.9342ZM55.7173 27.9342V27.9342ZM82.1066 35.3909C79.6288 32.9881 76.1755 31.7703 71.8421 31.7703C67.4488 31.7703 63.0938 33.0327 60.4072 33.9963C60.9064 31.0479 62.719 26.33 69.1355 25.0604C70.0694 24.8752 70.6654 24.0178 70.4688 23.146C70.2707 22.2714 69.3459 21.7113 68.4196 21.8994C64.9526 22.5859 62.464 24.114 60.6883 25.9796C58.7236 21.1598 53.8694 15 44.7063 15C42.8584 15 40.8814 15.2485 38.8322 15.7411C38.3575 15.8545 37.9581 16.1504 37.7308 16.5554C37.5034 16.9604 37.4696 17.4358 37.6386 17.8652C37.8537 18.4081 43.035 31.1642 55.7189 31.1656H55.7219C56.3487 31.1656 56.9846 31.1268 57.6283 31.0622C57.2642 32.1135 57.0277 33.1447 56.8986 34.1026C54.2427 33.1289 49.7249 31.7703 45.1672 31.7703C40.8338 31.7703 37.379 32.9881 34.9027 35.3923C29.1576 40.9661 30.236 58.9384 35.1485 69.7399C38.2008 76.4512 42.4114 80 47.3254 80C47.4483 80 47.5712 79.9885 47.6926 79.9641C47.7632 79.9497 54.9093 78.5078 58.5054 78.5078C62.1015 78.5078 69.2445 79.9483 69.3167 79.9641C69.4365 79.9885 69.5594 80 69.6823 80C74.5964 80 78.8085 76.4526 81.8608 69.7399C86.7718 58.937 87.8517 40.9661 82.1066 35.3909ZM78.6794 68.4732C77.2892 71.5323 74.3045 76.6365 69.8528 76.7643C68.6193 76.5216 62.1599 75.275 58.5039 75.275C54.8479 75.275 48.3854 76.5216 47.1549 76.7657C42.7017 76.6379 39.7185 71.5323 38.3283 68.4761C33.2637 57.3371 33.5095 41.3998 37.3913 37.6342C39.1916 35.8863 41.8077 35.0017 45.1672 35.0017C51.2887 35.0017 57.6713 37.93 57.7358 37.9602C58.2228 38.1857 58.7927 38.1842 59.2766 37.9602C59.3395 37.93 65.6976 35.0017 71.8437 35.0017C75.2032 35.0017 77.8192 35.8863 79.6196 37.6342C83.4983 41.3998 83.7441 57.3371 78.6794 68.4732Z" stroke="black" stroke-width="0.5"/>
</svg>
