<svg width="78" height="27" viewBox="0 0 78 27" fill="none" xmlns="http://www.w3.org/2000/svg">
<path d="M71.3677 22.3151L72.6042 18.8725L73.8408 22.3151H71.3677ZM74.0796 16.4557H71.171L67.2646 26.6571H69.808L70.5808 24.5212H74.6276L75.4005 26.6571H78L74.0937 16.4557H74.0796ZM60.9836 18.5915C61.9813 18.5634 62.9087 19.0833 63.4145 19.9404L65.5504 18.7179C64.6792 17.1723 62.9649 16.2589 61.0258 16.2589C57.8782 16.2589 55.6581 18.465 55.6581 21.5423C55.6581 24.6196 57.8782 26.8257 61.0258 26.8257C62.9789 26.8257 64.5246 25.9545 65.466 24.5634L63.4707 23.1442C62.9368 23.9873 62.0094 24.4931 61.0117 24.4791C59.5082 24.4791 58.2014 23.4112 58.2014 21.5142C58.2014 19.7718 59.3958 18.5634 60.9977 18.5634M50.3326 26.629H52.7635V16.4416H50.3326V26.629ZM41.5223 20.7695V18.6477H43.5035C44.3466 18.6477 44.9227 18.9849 44.9227 19.7016C44.9227 20.4182 44.3888 20.7695 43.5035 20.7695H41.5223ZM47.3817 19.7016C47.3817 17.6922 46.0468 16.4416 43.5176 16.4416H39.0773V26.643H41.5082V22.821H41.8595L44.5433 26.643H47.4379L44.5152 22.7507C46.3419 22.4697 47.3677 21.3315 47.3677 19.7016M30.4637 22.5821H35.4941V20.3901H30.4637V18.6336H35.8033V16.4416H28.0187V26.643H35.8314V24.451H30.4637V22.5821ZM18.8571 22.9194L16.5386 16.4416H13.096V26.643H15.5269V19.6875L17.5644 25.6875H20.1499L22.1874 19.6735V26.6571H24.6042V16.4697H21.1616L18.8571 22.9334V22.9194ZM4.08899 22.287L5.32553 18.8444L6.56206 22.287H4.08899ZM3.90632 16.4275L0 26.629H2.54333L3.31616 24.4931H7.34895L8.12178 26.629H10.7073L6.80094 16.4416H3.90632V16.4275ZM68.3326 5.67814C68.6698 5.24254 69.1335 4.9053 69.6393 4.70858L70.0328 5.81865H70.0609C70.4262 5.8327 70.7916 5.70624 71.0867 5.46736C71.3396 5.24254 71.4941 4.91935 71.4801 4.58212C71.5082 4.006 71.0586 3.52825 70.4824 3.50015C70.4543 3.50015 70.4262 3.50015 70.3841 3.50015C69.9485 3.52825 69.541 3.71092 69.2178 4.006C68.7119 4.42755 68.2623 4.91935 67.897 5.45331L68.3045 3.50015H67.7986L65.2834 4.07626V4.59617L66.4918 4.76479L65.3255 10.6805H67.1241L67.6862 7.28001C67.7564 6.68985 67.9813 6.12778 68.3185 5.65003M59.8595 5.3128C60.2529 4.59617 60.7166 4.24488 61.2787 4.24488C61.6721 4.23083 62.0375 4.42755 62.2201 4.76479C62.459 5.24254 62.5714 5.79055 62.5433 6.32451C62.5714 7.25191 62.3747 8.16525 61.9532 8.98024C61.5597 9.69687 61.082 10.0482 60.5199 10.0482C60.1405 10.0482 59.7892 9.86549 59.5925 9.52825C59.3536 9.06455 59.2412 8.53059 59.2693 8.01069C59.2412 7.08329 59.4379 6.15589 59.8454 5.3128M57.7237 6.09968C57.4988 6.63364 57.3864 7.20975 57.3864 7.79992C57.3443 8.6149 57.6393 9.40179 58.1874 10.006C58.7635 10.5681 59.5504 10.8631 60.3513 10.821C60.8712 10.821 61.3911 10.7226 61.8829 10.5119C62.3607 10.3151 62.7822 10.0341 63.1475 9.66877C63.555 9.24722 63.8782 8.75542 64.089 8.20741C64.3138 7.6594 64.4262 7.08329 64.4262 6.49312C64.4684 5.67814 64.1733 4.89125 63.6253 4.30109C63.0492 3.73903 62.2623 3.44394 61.4614 3.4861C60.9415 3.4861 60.4216 3.58446 59.9438 3.79523C59.466 3.99195 59.0304 4.28703 58.6651 4.66643C58.2576 5.08797 57.9485 5.56572 57.7377 6.11373M57.6112 3.87954H55.63C55.7424 3.20507 55.897 2.53059 56.1077 1.87017C56.2342 1.44863 56.4309 1.04113 56.6979 0.675794L57.9204 1.95448C58.1733 1.91233 58.4122 1.78586 58.5948 1.60319C58.7635 1.44863 58.8478 1.2238 58.8478 0.998979C58.8478 0.703897 58.6932 0.436918 58.4543 0.282351C58.1593 0.0856299 57.808 -0.0127307 57.4426 0.00132078C56.5995 0.0153723 55.7986 0.394763 55.2506 1.04113C54.5761 1.78586 54.1265 2.71326 53.986 3.71092L52.8478 4.20273V4.8491L53.8033 4.72263L53.171 9.17696C53.0586 10.006 52.904 10.821 52.7073 11.636C52.6089 12.0435 52.4543 12.4369 52.2155 12.7882L50.6557 11.9592C50.4731 12.0294 50.3326 12.1559 50.2201 12.3245C50.1218 12.4931 50.0656 12.6898 50.0656 12.8866C50.0656 13.1395 50.1639 13.3784 50.3466 13.5329C50.5433 13.7016 50.7963 13.7999 51.0632 13.7859C51.5972 13.7718 52.103 13.5751 52.5105 13.2519C53.0445 12.8444 53.5082 12.3526 53.8595 11.7765C54.1405 11.3409 54.3513 10.8631 54.5059 10.3713C54.6885 9.76713 54.829 9.14886 54.9133 8.53059L55.4473 4.72263H57.555V3.86549L57.6112 3.87954ZM46.904 8.48844H41.5363V6.61959H46.5667V4.42755H41.5363V2.67111H46.8759V0.507176H39.0913V10.7086H46.904V8.51654V8.48844ZM30.8571 8.43223H28.9742V2.75542H30.8571C32.7541 2.75542 33.6534 3.93575 33.6534 5.59383C33.6534 7.25191 32.7401 8.44629 30.8571 8.44629M30.9134 0.507176H26.5574V10.7086H30.9134C34.103 10.7086 36.2108 8.68516 36.2108 5.62193C36.2108 2.5587 34.103 0.535279 30.9134 0.535279M17.986 2.65706C19.644 2.65706 20.8103 3.86549 20.8103 5.60788C20.8103 7.35027 19.63 8.57275 17.986 8.57275C16.3419 8.57275 15.1616 7.36432 15.1616 5.60788C15.1616 3.85144 16.3419 2.65706 17.986 2.65706ZM17.986 10.9053C21.1335 10.9053 23.3536 8.65706 23.3536 5.62193C23.3536 2.5868 21.1475 0.310454 18.0141 0.310454C14.8806 0.310454 12.6464 2.5587 12.6464 5.59383C12.6464 8.62896 14.8665 10.8772 18.0141 10.8772M5.80328 10.8772C7.75644 10.8772 9.30211 10.006 10.2436 8.6149L8.2623 7.1957C7.72834 8.03879 6.80094 8.54465 5.80328 8.53059C4.29977 8.53059 2.99297 7.46268 2.99297 5.56572C2.99297 3.82333 4.18735 2.6149 5.78923 2.6149C6.77283 2.60085 7.70024 3.10671 8.19204 3.96385L10.3279 2.74137C9.45668 1.2238 7.74239 0.310454 5.78923 0.310454C2.65574 0.310454 0.421546 2.51654 0.421546 5.59383C0.421546 8.67111 2.64169 10.8772 5.78923 10.8772" fill="black"/>
</svg>
