<svg width="95" height="95" viewBox="0 0 95 95" fill="none" xmlns="http://www.w3.org/2000/svg">
<path fill-rule="evenodd" clip-rule="evenodd" d="M50.143 75.4327C59.9529 74.7649 69.9666 71.8655 75.6824 64.6514C81.6519 57.1171 82.0432 47.4795 79.1531 38.8181C76.1256 29.7452 70.3273 20.6794 60.1061 17.9719C50.2108 15.3507 40.4261 21.0078 31.7164 26.2525C23.5399 31.1762 15.3203 37.1119 14.019 45.7244C12.714 54.3601 18.3086 62.2458 25.3968 68.075C32.0752 73.5674 40.9277 76.0601 50.143 75.4327Z" fill="#00A88F"/>
<path d="M60.5803 44.7198H31.5859V46.314H60.5803V44.7198Z" fill="black" fill-opacity="0.5"/>
<path d="M60.5803 39.3459H31.5859V40.9401H60.5803V39.3459Z" fill="black" fill-opacity="0.5"/>
<path d="M60.5803 33.9705H31.5859V35.5646H60.5803V33.9705Z" fill="black" fill-opacity="0.5"/>
<path d="M60.5803 28.5964H31.5859V30.1906H60.5803V28.5964Z" fill="black" fill-opacity="0.5"/>
<rect x="31.5" y="19.5" width="51" height="39.7925" rx="4.5" fill="white" stroke="#121111" stroke-width="3"/>
<rect x="38.1514" y="25.1321" width="37.6981" height="24.4528" rx="3" fill="#7FDBFF"/>
<line x1="43.2266" y1="29.2264" x2="70.7737" y2="29.2264" stroke="#121111" stroke-width="2" stroke-linecap="round" stroke-linejoin="round"/>
<line x1="43.2266" y1="34.3208" x2="70.7737" y2="34.3208" stroke="#121111" stroke-width="2" stroke-linecap="round" stroke-linejoin="round"/>
<line x1="43.2266" y1="39.415" x2="70.7737" y2="39.415" stroke="#121111" stroke-width="2" stroke-linecap="round" stroke-linejoin="round"/>
<line x1="43.2266" y1="44.5094" x2="70.7737" y2="44.5094" stroke="#121111" stroke-width="2" stroke-linecap="round" stroke-linejoin="round"/>
<line x1="31.5" y1="53.1792" x2="82.5" y2="53.1792" stroke="#121111" stroke-width="3" stroke-linecap="round" stroke-linejoin="round"/>
<line x1="63.5451" y1="59.9594" x2="65.2326" y2="70.9282" stroke="#121111" stroke-width="3"/>
<line x1="51.7326" y1="60.4156" x2="50.0451" y2="71.3843" stroke="#121111" stroke-width="3"/>
<line x1="43.7266" y1="70.5" x2="70.2737" y2="70.5" stroke="#121111" stroke-width="3" stroke-linecap="round" stroke-linejoin="round"/>
</svg>
