<svg width="85" height="85" viewBox="0 0 85 85" fill="none" xmlns="http://www.w3.org/2000/svg">
<path fill-rule="evenodd" clip-rule="evenodd" d="M45.143 70.4327C54.9529 69.7649 64.9666 66.8655 70.6824 59.6514C76.6519 52.1171 77.0432 42.4795 74.1531 33.8181C71.1256 24.7452 65.3273 15.6794 55.1061 12.9718C45.2108 10.3507 35.4261 16.0078 26.7164 21.2525C18.5399 26.1762 10.3203 32.1119 9.01895 40.7244C7.71403 49.3601 13.3086 57.2458 20.3968 63.075C27.0752 68.5674 35.9277 71.0601 45.143 70.4327Z" fill="#00A88F"/>
<path d="M43.9554 25.42C46.5614 25.42 48.674 23.335 48.674 20.763C48.674 18.191 46.5614 16.106 43.9554 16.106C41.3493 16.106 39.2367 18.191 39.2367 20.763C39.2367 23.335 41.3493 25.42 43.9554 25.42Z" fill="white"/>
<path d="M44.8233 33.1987L44.8811 40.9583H54.2992V37.0309H49.5098V29.5314C49.5098 27.5899 47.9155 26.0164 45.9483 26.0164H41.1396C39.1724 26.0164 37.5781 27.5899 37.5781 29.5314V40.9583H44.8811" fill="white"/>
<path d="M53.8427 59.9481H57.8221V44.4415C57.8221 42.5191 56.247 40.9646 54.2992 40.9646L44.8811 40.9583L53.8427 49.5658V59.9481Z" fill="white"/>
<path d="M44.8233 33.1987L44.8811 40.9583M44.8811 40.9583H54.2992V37.0309H49.5098V29.5314C49.5098 27.5899 47.9155 26.0164 45.9483 26.0164H41.1396C39.1724 26.0164 37.5781 27.5899 37.5781 29.5314V40.9583H44.8811ZM44.8811 40.9583L54.2992 40.9646C56.247 40.9646 57.8221 42.5191 57.8221 44.4415V59.9481H53.8427M44.8811 40.9583L53.8427 49.5658V59.9481M53.8427 59.9481H62.6308M48.674 20.763C48.674 23.335 46.5614 25.42 43.9554 25.42C41.3493 25.42 39.2367 23.335 39.2367 20.763C39.2367 18.191 41.3493 16.106 43.9554 16.106C46.5614 16.106 48.674 18.191 48.674 20.763Z" stroke="#121111" stroke-width="2" stroke-miterlimit="10" stroke-linecap="round" stroke-linejoin="round"/>
<path d="M39.8153 63.5268C46.4863 63.5268 51.8942 58.2678 51.8942 51.7806C51.8942 45.2933 46.4863 40.0344 39.8153 40.0344C33.1443 40.0344 27.7363 45.2933 27.7363 51.7806C27.7363 58.2678 33.1443 63.5268 39.8153 63.5268Z" fill="white"/>
<path d="M36.7353 40.0344L30.0023 27.7373M51.8942 51.7806C51.8942 58.2678 46.4863 63.5268 39.8153 63.5268C33.1443 63.5268 27.7363 58.2678 27.7363 51.7806C27.7363 45.2933 33.1443 40.0344 39.8153 40.0344C46.4863 40.0344 51.8942 45.2933 51.8942 51.7806Z" stroke="#121111" stroke-width="2" stroke-miterlimit="10" stroke-linecap="round" stroke-linejoin="round"/>
</svg>
