<svg width="95" height="95" viewBox="0 0 95 95" fill="none" xmlns="http://www.w3.org/2000/svg">
<path fill-rule="evenodd" clip-rule="evenodd" d="M49.2133 75.6348C59.0232 74.9669 69.0369 72.0675 74.7527 64.8535C80.7222 57.3191 81.1136 47.6815 78.2234 39.0201C75.1959 29.9472 69.3976 20.8814 59.1764 18.1739C49.2812 15.5527 39.4964 21.2098 30.7867 26.4545C22.6102 31.3782 14.3907 37.3139 13.0893 45.9264C11.7843 54.5621 17.379 62.4478 24.4671 68.2771C31.1455 73.7694 39.9981 76.2622 49.2133 75.6348Z" fill="#FFB700"/>
<circle cx="53" cy="47" r="24.5" fill="white" stroke="#1B1B1B" stroke-width="3"/>
<path d="M51.4171 60.335C50.9781 59.8916 50.7586 59.3596 50.7586 58.7278C50.7586 58.1293 50.9781 57.5973 51.4171 57.165C51.8561 56.7328 52.372 56.5 52.9757 56.5C53.6013 56.5 54.128 56.7217 54.5671 57.165C55.0061 57.6084 55.2257 58.1293 55.2257 58.7278C55.2257 59.3596 55.0061 59.8916 54.5671 60.335C54.128 60.7783 53.6013 61 52.9757 61C52.372 61 51.8561 60.7783 51.4171 60.335ZM51.7687 52.2988C51.4592 52.0747 51.2969 51.7759 51.2674 51.4025L50.3682 37.3983V33.2033C50.3682 32.5809 50.6188 32.0581 51.12 31.6349C51.6212 31.2116 52.2404 31 52.9775 31C53.7146 31 54.319 31.2116 54.8055 31.6349C55.2919 32.0581 55.5278 32.5809 55.5278 33.2033V37.4108L54.6286 51.4149C54.5991 51.7884 54.437 52.0747 54.1569 52.3112C53.8768 52.5353 53.4787 52.6473 52.9775 52.6473C52.4763 52.6349 52.0636 52.5228 51.7687 52.2988Z" fill="#1B1B1B" stroke="#1B1B1B" stroke-width="1.5494" stroke-miterlimit="10"/>
</svg>
