<svg width="95" height="95" viewBox="0 0 95 95" fill="none" xmlns="http://www.w3.org/2000/svg">
<path fill-rule="evenodd" clip-rule="evenodd" d="M50.143 75.4327C59.9529 74.7649 69.9666 71.8655 75.6824 64.6514C81.6519 57.1171 82.0432 47.4795 79.1531 38.8181C76.1256 29.7452 70.3273 20.6794 60.1061 17.9719C50.2108 15.3507 40.4261 21.0078 31.7164 26.2525C23.5399 31.1762 15.3203 37.1119 14.019 45.7244C12.714 54.3601 18.3086 62.2458 25.3968 68.075C32.0752 73.5674 40.9277 76.0601 50.143 75.4327Z" fill="#00A88F"/>
<path d="M71.9404 18.0244L39.2112 18C36.7747 18 34.7989 19.9799 34.7989 22.4289L34.7383 64.9512C34.7322 67.4002 36.708 69.3923 39.1446 69.3923L71.9404 69.4167C74.3769 69.4167 76.3528 67.4368 76.3528 64.9878L76.4134 22.4289C76.4134 22.4289 76.4134 18.0244 71.9404 18.0244Z" fill="#EBFFEF" stroke="#1B1B1B" stroke-width="3" stroke-miterlimit="10" stroke-linecap="round" stroke-linejoin="round"/>
<path d="M58.4931 60.0899C58.4931 58.7131 57.4688 58.3171 56.3657 58.0978L55.7778 57.9881C54.911 57.8237 54.8444 57.5861 54.8444 57.2693C54.8444 56.855 55.2383 56.6053 55.899 56.6053C56.6808 56.6053 56.8808 56.9769 56.9657 57.2571L56.9718 57.2815C57.0687 57.5251 57.2991 57.6714 57.5839 57.6714C57.6567 57.6714 57.7233 57.6592 57.7718 57.6531C58.0748 57.5983 58.293 57.3668 58.293 57.0926C58.293 57.0256 58.2809 56.9586 58.2567 56.8916C58.0991 56.4164 57.6566 55.661 56.4384 55.4904V54.6741C56.4384 53.9918 55.3111 53.9918 55.3111 54.6741V55.4965C54.0019 55.6915 53.517 56.5382 53.517 57.2754C53.517 58.6156 54.4989 58.9872 55.4626 59.1761L56.0989 59.304C57.002 59.4807 57.1596 59.7 57.1596 60.1082C57.1596 60.6016 56.7172 60.9001 55.9778 60.9001C55.0201 60.9001 54.8201 60.492 54.6928 60.029C54.614 59.7731 54.3716 59.6086 54.0746 59.6086C54.0079 59.6086 53.9594 59.6147 53.8927 59.6269L53.8746 59.633C53.5655 59.7 53.3594 59.9315 53.3594 60.2056C53.3594 60.2605 53.3715 60.3031 53.3776 60.3397L53.3897 60.3823C53.5291 60.827 53.8382 61.8017 55.3717 62.0211V62.88C55.3717 63.2212 55.6565 63.3979 55.9353 63.3979C56.2141 63.3979 56.499 63.2212 56.499 62.88V62.0393C57.7051 61.8688 58.4931 61.1316 58.4931 60.0899Z" fill="#FFF2FF"/>
<path d="M48.9238 40.0234H68.4313" stroke="#1B1B1B" stroke-width="3" stroke-miterlimit="10" stroke-linecap="round" stroke-linejoin="round"/>
<path d="M48.9238 48.8901H68.4313" stroke="#1B1B1B" stroke-width="3" stroke-miterlimit="10" stroke-linecap="round" stroke-linejoin="round"/>
<path d="M45.0303 38.3884H41.8301V41.605H45.0303V38.3884Z" fill="#FFF2FF" stroke="#1B1B1B" stroke-width="2" stroke-miterlimit="10" stroke-linecap="round" stroke-linejoin="round"/>
<path d="M45.0303 47.2551H41.8301V50.4717H45.0303V47.2551Z" fill="#FFF2FF" stroke="#1B1B1B" stroke-width="2" stroke-miterlimit="10" stroke-linecap="round" stroke-linejoin="round"/>
<path d="M48.9238 31.2949H68.4313" stroke="#1B1B1B" stroke-width="3" stroke-miterlimit="10" stroke-linecap="round" stroke-linejoin="round"/>
<path d="M45.0303 29.5208H41.8301V32.7373H45.0303V29.5208Z" fill="#FFF2FF" stroke="#1B1B1B" stroke-width="2" stroke-miterlimit="10" stroke-linecap="round" stroke-linejoin="round"/>
<path d="M65.9974 21.6274L37.2971 21.604C34.9564 21.604 33.0582 23.5061 33.0582 25.8588L33 66.7098C32.9942 69.0625 34.8923 70.9763 37.2331 70.9763L68.7399 70.9997C71.0806 70.9997 72.9788 69.0976 72.9788 66.7449L73.037 28.8144L65.9974 21.6274Z" fill="white"/>
<path d="M65.9974 28.8151L65.9974 21.6274L72.9788 28.8151H65.9974Z" fill="white"/>
<path d="M65.9974 21.6274L37.2971 21.604C34.9564 21.604 33.0582 23.5061 33.0582 25.8588L33 66.7098C32.9942 69.0625 34.8923 70.9763 37.2331 70.9763L68.7399 70.9997C71.0806 70.9997 72.9788 69.0976 72.9788 66.7449L73.037 28.8144L65.9974 21.6274ZM65.9974 21.6274L65.9974 28.8151H72.9788L65.9974 21.6274Z" stroke="#1B1B1B" stroke-width="3" stroke-miterlimit="10" stroke-linecap="round" stroke-linejoin="round"/>
<path d="M46.6309 42.762H65.3716" stroke="#1B1B1B" stroke-width="3" stroke-miterlimit="10" stroke-linecap="round" stroke-linejoin="round"/>
<path d="M39.8145 55.6731L65.37 55.6731" stroke="#1B1B1B" stroke-width="3" stroke-miterlimit="10" stroke-linecap="round" stroke-linejoin="round"/>
<path d="M39.8145 49.71L65.37 49.71" stroke="#1B1B1B" stroke-width="3" stroke-miterlimit="10" stroke-linecap="round" stroke-linejoin="round"/>
<path d="M39.8145 61.6355L65.37 61.6355" stroke="#1B1B1B" stroke-width="3" stroke-miterlimit="10" stroke-linecap="round" stroke-linejoin="round"/>
<path d="M42.8889 41.1909H39.8145V44.2811H42.8889V41.1909Z" fill="#FFF5FF" stroke="#1B1B1B" stroke-width="2" stroke-miterlimit="10" stroke-linecap="round" stroke-linejoin="round"/>
<path d="M46.6309 34.3767H65.3716" stroke="#1B1B1B" stroke-width="3" stroke-miterlimit="10" stroke-linecap="round" stroke-linejoin="round"/>
<path d="M42.8889 32.6729H39.8145V35.763H42.8889V32.6729Z" fill="#FFF5FF" stroke="#1B1B1B" stroke-width="2" stroke-miterlimit="10" stroke-linecap="round" stroke-linejoin="round"/>
</svg>
