<svg width="190" height="29" viewBox="0 0 190 29" fill="none" xmlns="http://www.w3.org/2000/svg">
  <g clip-path="url(#clip0_15063_1413)">
    <path d="M19.203 4.67906C19.5673 4.82437 20.4102 3.97413 20.5865 3.57355C20.7628 3.17298 20.5865 2.70761 20.1835 2.53088C19.7824 2.35416 19.2979 2.53088 19.1216 2.93146C18.9453 3.33203 18.8387 4.53375 19.203 4.67906Z" fill="#034E46"/>
    <path d="M25.0859 9.91794C25.0879 9.98666 25.0975 10.0495 25.0975 10.1202C25.0975 13.3837 22.9273 17.3776 21.135 17.3776C21.0207 17.3776 20.8211 17.3227 20.5459 17.2068C20.4393 17.1617 20.325 17.1106 20.1797 17.0419C20.1196 17.0144 19.9084 16.9123 19.8658 16.8907C19.7398 16.8298 19.643 16.7866 19.5519 16.7473C19.2748 16.6276 19.0655 16.5667 18.8427 16.5608V16.5569C18.8427 16.5569 18.8311 16.5588 18.8253 16.5588C18.8194 16.5588 18.8136 16.5569 18.8078 16.5569V16.5608C18.585 16.5667 18.3738 16.6276 18.0986 16.7473C18.0076 16.7866 17.9107 16.8318 17.7847 16.8907C17.7421 16.9103 17.5309 17.0124 17.4708 17.0419C17.3255 17.1106 17.2131 17.1636 17.1065 17.2068C16.8314 17.3227 16.6318 17.3776 16.5175 17.3776C14.7251 17.3776 12.5549 13.3837 12.5549 10.1202C12.5549 8.09768 13.4327 6.9372 14.8704 6.56215C16.1222 6.23619 17.7266 6.34223 18.2943 7.24548C18.3622 7.35544 18.5908 7.55573 18.8272 7.60482C19.0617 7.55573 19.2903 7.35544 19.3601 7.24548C19.9142 6.36383 21.4566 6.24405 22.6948 6.54448L23.9776 5.33097C23.7218 5.20923 23.4544 5.10712 23.1676 5.03251C21.7647 4.66728 20.2901 4.94218 19.1334 5.62944C19.0229 5.69424 18.9241 5.73351 18.8272 5.74726C18.7303 5.73351 18.6315 5.69424 18.521 5.62944C17.3642 4.94218 15.8897 4.66728 14.4868 5.03251C12.3786 5.58231 11.0513 7.43202 11.0513 10.1202C11.0513 14.0945 13.64 18.8641 16.5194 18.8641C16.8837 18.8641 17.2848 18.8091 17.7014 18.5735C18.211 18.2829 18.428 18.006 18.8001 18.008C18.8098 18.008 18.8175 18.008 18.8272 18.008C18.8272 18.008 18.8446 18.008 18.8543 18.008C19.2264 18.008 19.4434 18.2829 19.953 18.5735C20.3696 18.8111 20.7707 18.8641 21.135 18.8641C24.0124 18.8641 26.6031 14.0965 26.6031 10.1202C26.6031 9.58806 26.5372 9.10108 26.4384 8.63767L25.0879 9.91598L25.0859 9.91794Z" fill="#034E46"/>
    <path d="M18.3639 4.67122C18.8832 4.46308 18.7321 2.74493 18.4783 2.17156C18.2244 1.59819 17.5346 1.34488 16.9591 1.59819C16.3836 1.85149 16.1317 2.51519 16.3836 3.08856C16.6375 3.66193 17.8427 4.87936 18.362 4.67122H18.3639Z" fill="#034E46"/>
    <path d="M17.0835 9.72749C16.8277 9.46633 16.4131 9.46044 16.1515 9.71375L16.0875 9.77462C15.8182 10.0338 15.8124 10.4678 16.072 10.7348L18.3585 13.0911C18.6046 13.3444 19.0018 13.3601 19.2673 13.1284L27.8202 5.63535C28.0973 5.39187 28.1283 4.96577 27.888 4.68497L27.8338 4.62017C27.5935 4.33742 27.173 4.306 26.894 4.55145L18.8894 11.5811L17.0816 9.72749H17.0835Z" fill="#034E46"/>
    <path fill-rule="evenodd" clip-rule="evenodd" d="M12.3981 25.6562C12.9542 25.3773 13.5607 25.2713 14.1769 25.3145L16.2134 25.4579C16.9671 25.5109 17.6705 25.4716 18.3545 25.3361C19.0618 25.1967 19.7341 24.9552 20.3833 24.6351L29.6609 20.0442C29.814 19.9676 29.9302 19.8243 29.9767 19.6633C30.0232 19.4983 30.0019 19.3255 29.907 19.1724C29.7016 18.8386 29.3741 18.5008 28.8548 18.3496C28.3045 18.1906 27.5353 18.2338 26.456 18.6893L20.1236 21.3579C20.05 21.8056 19.8233 22.1963 19.5016 22.4791C19.1373 22.7991 18.6549 22.9798 18.1356 22.9425L14.3261 22.6735C14.1672 22.6617 14.047 22.5223 14.0567 22.3613C14.0684 22.2002 14.2059 22.0785 14.3648 22.0883L18.1743 22.3573C18.5192 22.3809 18.8564 22.2631 19.118 22.0333C19.3699 21.8115 19.5384 21.4914 19.5636 21.1183C19.583 20.755 19.459 20.4232 19.2439 20.1738C19.0172 19.9087 18.6994 19.7458 18.3545 19.7202L13.2991 19.3648C13.27 19.3629 13.239 19.355 13.21 19.3432C12.2043 18.925 11.0746 18.5931 9.96241 18.7345C8.86762 18.8739 7.77476 19.4826 6.80398 20.9416L5 23.6592L10.6251 27.502L11.0553 26.8579C11.4079 26.3317 11.8633 25.9252 12.3981 25.6581V25.6562Z" fill="#034E46"/>
  </g>
  <path d="M35.0094 12.9806C35.0094 8.72101 37.6676 5.96423 42.27 5.96423C43.5897 5.96423 45.008 6.2695 46.1868 6.89881L46.2667 10.0642H44.7028L44.1157 7.4295C43.6273 7.22756 43.1435 7.12424 42.6551 7.12424C40.4666 7.12424 38.5974 8.95113 38.5974 12.9853C38.5974 17.0195 40.3821 18.9075 42.6129 18.9075C42.8946 18.9075 43.1389 18.8887 43.3831 18.8276V17.9541C43.3831 16.7565 43.3643 15.6247 43.3408 14.4459L41.5139 14.2017V13.1074H47.6991V14.2017L46.6424 14.3426C46.6236 15.5589 46.6001 16.7565 46.6001 18.0151V18.8652C45.1818 19.6777 43.801 20.0628 42.0164 20.0628C37.8366 20.0628 35 17.4046 35 12.9853L35.0094 12.9806Z" fill="#034E46"/>
  <path d="M48.5938 14.7826C48.5938 11.3965 51.1909 9.54617 53.8067 9.54617C56.4226 9.54617 58.0053 11.3919 58.0053 13.8481C58.0053 14.2754 57.9631 14.5995 57.8832 14.9235H52.0221C52.163 17.0745 53.3183 18.0466 54.7413 18.0466C55.8356 18.0466 56.587 17.5817 57.1975 16.9524L57.9067 17.6005C57.0754 19.2019 55.6149 19.9721 53.6471 19.9721C50.6836 19.9721 48.5938 18.0466 48.5938 14.7779V14.7826ZM52.0221 13.8715H53.7457C54.7178 13.8715 54.9855 13.5052 54.9855 12.5941C54.9855 11.2557 54.3562 10.6076 53.6048 10.6076C52.8534 10.6076 52.102 11.4012 52.0221 13.8715Z" fill="#034E46"/>
  <path d="M60.0905 17.1583C60.0905 16.4491 60.1092 15.9184 60.1092 15.1294V11.2549H58.7896V10.0574L60.2924 9.85541L61.3068 7.0141H63.3732L63.331 9.87419H65.4631V11.2549H63.331V16.9375C63.331 17.8909 63.7583 18.3183 64.3642 18.3183C64.7305 18.3183 65.0733 18.1774 65.4584 17.8721L65.9656 18.3605C65.4209 19.3938 64.4863 19.9855 62.9834 19.9855C61.1565 19.9855 60.0811 19.173 60.0811 17.1677L60.0905 17.1583Z" fill="#034E46"/>
  <path d="M66.3594 6.34216H72.9108C76.358 6.34216 77.6354 7.69942 77.6354 9.48404C77.6354 10.8648 76.8417 12.0389 74.1883 12.5273C77.2127 12.8936 78.4291 14.11 78.4291 15.9369C78.4291 17.6229 77.1705 19.6705 72.1406 19.6705H66.3594V18.5762L67.881 18.4119C67.9233 16.7493 67.9233 15.0446 67.9233 13.3022V12.7151C67.9233 11.0291 67.9233 9.30558 67.881 7.60079L66.3594 7.44112V6.34686V6.34216ZM71.3094 7.52095C71.2671 9.04258 71.2671 10.6018 71.2671 12.1657H71.8354C73.5589 12.1657 74.3526 11.3344 74.3526 9.73295C74.3526 8.23011 73.6012 7.52095 72.0185 7.52095H71.3094ZM71.2671 13.2411C71.2671 15.1479 71.2671 16.8292 71.3094 18.4964H71.9575C73.8407 18.4964 74.9397 17.6229 74.9397 15.8993C74.9397 14.0536 73.9675 13.2411 71.9575 13.2411H71.2671Z" fill="#034E46"/>
  <path d="M79.6211 14.7826C79.6211 11.3965 82.2182 9.54617 84.8341 9.54617C87.45 9.54617 89.0327 11.3919 89.0327 13.8481C89.0327 14.2754 88.9904 14.5995 88.9106 14.9235H83.0495C83.1904 17.0745 84.3457 18.0466 85.7687 18.0466C86.8629 18.0466 87.6144 17.5817 88.2249 16.9524L88.934 17.6005C88.1028 19.2019 86.6422 19.9721 84.6744 19.9721C81.7157 19.9721 79.6258 18.0466 79.6258 14.7779L79.6211 14.7826ZM83.0495 13.8715H84.773C85.7452 13.8715 86.0082 13.5052 86.0082 12.5941C86.0082 11.2557 85.3789 10.6076 84.6274 10.6076C83.876 10.6076 83.1246 11.4012 83.0448 13.8715H83.0495Z" fill="#034E46"/>
  <path d="M90.1667 18.7182L91.261 18.474C91.2845 17.5018 91.2845 16.262 91.2845 15.412V14.2332C91.2845 13.1154 91.261 12.6927 91.2234 11.8803L89.9883 11.6971V10.9081L93.9849 9.54617L94.3512 9.7716L94.4733 11.2322C95.53 9.99703 96.521 9.54617 97.7185 9.54617C99.4609 9.54617 100.64 10.7015 100.64 13.0356V15.4073C100.64 16.2996 100.64 17.5159 100.658 18.5116L101.673 18.7135V19.6669H96.319V18.7135L97.3757 18.4881C97.3945 17.4924 97.3945 16.2761 97.3945 15.4073V13.2751C97.3945 11.9789 97.0704 11.5093 96.2768 11.5093C95.7695 11.5093 95.1402 11.7723 94.5344 12.2372V15.4026C94.5344 16.2526 94.5344 17.5112 94.5532 18.5069L95.5065 18.7088V19.6622H90.1714V18.7088L90.1667 18.7182Z" fill="#034E46"/>
  <path d="M102.676 14.7826C102.676 11.3965 105.273 9.54617 107.889 9.54617C110.505 9.54617 112.087 11.3919 112.087 13.8481C112.087 14.2754 112.045 14.5995 111.965 14.9235H106.104C106.245 17.0745 107.4 18.0466 108.823 18.0466C109.918 18.0466 110.669 17.5817 111.28 16.9524L111.989 17.6005C111.157 19.2019 109.697 19.9721 107.729 19.9721C104.766 19.9721 102.676 18.0466 102.676 14.7779V14.7826ZM106.104 13.8715H107.828C108.8 13.8715 109.068 13.5052 109.068 12.5941C109.068 11.2557 108.438 10.6076 107.687 10.6076C106.935 10.6076 106.184 11.4012 106.104 13.8715Z" fill="#034E46"/>
  <path d="M113.197 18.7169L114.315 18.4914C114.333 17.4582 114.357 16.4438 114.357 15.4106V11.2496H113.037V10.0521L114.399 9.88768C114.624 8.042 115.212 7.14969 116.141 6.21511C117.053 5.30401 118.696 4.73575 120.561 4.73575C122.021 4.73575 123.238 5.24296 123.421 6.45932C123.402 7.22953 122.914 7.79779 122.064 7.79779C121.354 7.79779 120.805 7.35163 120.237 6.27616L119.809 5.58579C119.443 5.76895 119.1 6.01316 118.795 6.31843C118.043 7.06985 117.658 7.84005 117.579 9.86889H121.594L123.604 9.54484L123.952 9.77027L123.89 12.6491V15.4059C123.89 16.256 123.89 17.5146 123.914 18.5102L124.928 18.7122V19.6655H119.532V18.7122L120.626 18.468C120.645 17.4958 120.645 16.256 120.645 15.4059V13.9453C120.645 12.7478 120.626 12.0574 120.584 11.2449H117.583V15.4059C117.583 16.4203 117.602 17.4348 117.625 18.468L118.804 18.7122V19.6655H113.206V18.7122L113.197 18.7169Z" fill="#034E46"/>
  <path d="M126.871 17.1583C126.871 16.4491 126.89 15.9184 126.89 15.1294V11.2549H125.57V10.0574L127.073 9.85541L128.088 7.0141H130.154L130.112 9.87419H132.244V11.2549H130.112V16.9375C130.112 17.8909 130.539 18.3183 131.145 18.3183C131.511 18.3183 131.854 18.1774 132.239 17.8721L132.746 18.3605C132.202 19.3938 131.267 19.9855 129.764 19.9855C127.937 19.9855 126.862 19.173 126.862 17.1677L126.871 17.1583Z" fill="#034E46"/>
  <path d="M133.357 19.0405L133.418 16.5655H135.039L135.386 18.5755C135.875 18.7587 136.34 18.862 136.908 18.862C138.063 18.862 138.711 18.4769 138.711 17.6644C138.711 17.0351 138.345 16.6078 137.007 16.2227L135.912 15.8986C134.33 15.4337 133.456 14.3958 133.456 12.8741C133.456 11.0097 134.959 9.5491 137.697 9.5491C138.894 9.5491 139.848 9.85437 140.9 10.3804L140.759 12.5924H139.134L138.73 10.8453C138.406 10.7232 138.059 10.6856 137.612 10.6856C136.701 10.6856 136.091 11.0707 136.091 11.8221C136.091 12.3716 136.396 12.7567 137.796 13.1794L138.791 13.4659C140.717 14.0341 141.487 15.0861 141.487 16.6078C141.487 18.7399 139.745 19.9751 136.884 19.9751C135.565 19.9751 134.428 19.6698 133.357 19.0405Z" fill="#034E46"/>
  <path d="M150.165 6.34216H156.575V7.43642L155.073 7.5961C155.03 9.23983 155.03 10.9211 155.03 12.6259V13.3773C155.03 15.0399 155.03 16.7446 155.073 18.4072L156.575 18.5715V19.6658H150.165V18.5715L151.583 18.4306C151.625 16.7681 151.625 15.0633 151.625 13.4196H147.305C147.305 15.2277 147.305 16.8292 147.347 18.4306L148.765 18.5715V19.6658H142.374V18.5715L143.853 18.4072C143.895 16.7634 143.895 15.0821 143.895 13.3773V12.6259C143.895 10.9634 143.895 9.2774 143.853 7.5961L142.374 7.43642V6.34216H148.765V7.43642L147.347 7.57731C147.305 9.23983 147.305 10.9258 147.305 12.222H151.625C151.625 10.6816 151.625 9.11772 151.583 7.57731L150.165 7.43642V6.34216Z" fill="#034E46"/>
  <path d="M157.26 14.7826C157.26 11.3965 159.857 9.54617 162.473 9.54617C165.089 9.54617 166.672 11.3919 166.672 13.8481C166.672 14.2754 166.63 14.5995 166.55 14.9235H160.689C160.83 17.0745 161.985 18.0466 163.408 18.0466C164.502 18.0466 165.254 17.5817 165.864 16.9524L166.573 17.6005C165.742 19.2019 164.281 19.9721 162.314 19.9721C159.355 19.9721 157.265 18.0466 157.265 14.7779L157.26 14.7826ZM160.689 13.8715H162.412C163.384 13.8715 163.647 13.5052 163.647 12.5941C163.647 11.2557 163.018 10.6076 162.267 10.6076C161.515 10.6076 160.764 11.4012 160.684 13.8715H160.689Z" fill="#034E46"/>
  <path d="M167.425 18.7174L168.543 18.4732C168.562 17.4588 168.585 16.4256 168.585 15.4112V6.91075L167.327 6.7088V5.85876L171.586 4.94766L171.91 5.14961L171.831 7.99091V15.4159C171.831 16.4491 171.849 17.4635 171.873 18.4967L172.991 18.7221V19.6755H167.435V18.7221L167.425 18.7174Z" fill="#034E46"/>
  <path d="M173.766 23.3203L174.903 23.076C174.922 21.7986 174.945 20.7232 174.945 19.7275V14.2281C174.945 13.1103 174.926 12.6876 174.884 11.8752L173.625 11.692V10.903L177.603 9.54108L177.946 9.74302L178.026 10.8795C178.9 9.96375 179.89 9.54108 181.027 9.54108C183.239 9.54108 185 11.3492 185 14.7118C185 18.0744 182.953 19.967 180.661 19.967C179.604 19.967 178.773 19.6195 178.106 18.9104V19.6993C178.106 20.695 178.125 21.7704 178.148 23.0056L179.444 23.3109V24.2642H173.766V23.3109V23.3203ZM178.167 11.8799V17.7597C178.552 18.0838 178.979 18.2669 179.487 18.2669C180.703 18.2669 181.558 17.1727 181.558 14.7588C181.558 12.3448 180.745 11.3116 179.548 11.3116C179.04 11.3116 178.594 11.5558 178.167 11.8799Z" fill="#034E46"/>
  <defs>
    <clipPath id="clip0_15063_1413">
      <rect width="25" height="26" fill="white" transform="translate(5 1.5)"/>
    </clipPath>
  </defs>
</svg>
