<svg width="190" height="29" viewBox="0 0 190 29" fill="none" xmlns="http://www.w3.org/2000/svg">
<g clip-path="url(#clip0_14995_17849)">
<path d="M19.203 4.67906C19.5673 4.82437 20.4102 3.97413 20.5865 3.57355C20.7628 3.17298 20.5865 2.70761 20.1835 2.53088C19.7824 2.35416 19.2979 2.53088 19.1216 2.93146C18.9453 3.33203 18.8387 4.53375 19.203 4.67906Z" fill="#121111"/>
<path d="M25.0859 9.91794C25.0879 9.98666 25.0975 10.0495 25.0975 10.1202C25.0975 13.3837 22.9273 17.3776 21.135 17.3776C21.0207 17.3776 20.8211 17.3227 20.5459 17.2068C20.4393 17.1617 20.325 17.1106 20.1797 17.0419C20.1196 17.0144 19.9084 16.9123 19.8658 16.8907C19.7398 16.8298 19.643 16.7866 19.5519 16.7473C19.2748 16.6276 19.0655 16.5667 18.8427 16.5608V16.5569C18.8427 16.5569 18.8311 16.5588 18.8253 16.5588C18.8194 16.5588 18.8136 16.5569 18.8078 16.5569V16.5608C18.585 16.5667 18.3738 16.6276 18.0986 16.7473C18.0076 16.7866 17.9107 16.8318 17.7847 16.8907C17.7421 16.9103 17.5309 17.0124 17.4708 17.0419C17.3255 17.1106 17.2131 17.1636 17.1065 17.2068C16.8314 17.3227 16.6318 17.3776 16.5175 17.3776C14.7251 17.3776 12.5549 13.3837 12.5549 10.1202C12.5549 8.09768 13.4327 6.9372 14.8704 6.56215C16.1222 6.23619 17.7266 6.34223 18.2943 7.24548C18.3622 7.35544 18.5908 7.55573 18.8272 7.60482C19.0617 7.55573 19.2903 7.35544 19.3601 7.24548C19.9142 6.36383 21.4566 6.24405 22.6948 6.54448L23.9776 5.33097C23.7218 5.20923 23.4544 5.10712 23.1676 5.03251C21.7647 4.66728 20.2901 4.94218 19.1334 5.62944C19.0229 5.69424 18.9241 5.73351 18.8272 5.74726C18.7303 5.73351 18.6315 5.69424 18.521 5.62944C17.3642 4.94218 15.8897 4.66728 14.4868 5.03251C12.3786 5.58231 11.0513 7.43202 11.0513 10.1202C11.0513 14.0945 13.64 18.8641 16.5194 18.8641C16.8837 18.8641 17.2848 18.8091 17.7014 18.5735C18.211 18.2829 18.428 18.006 18.8001 18.008C18.8098 18.008 18.8175 18.008 18.8272 18.008C18.8272 18.008 18.8446 18.008 18.8543 18.008C19.2264 18.008 19.4434 18.2829 19.953 18.5735C20.3696 18.8111 20.7707 18.8641 21.135 18.8641C24.0124 18.8641 26.6031 14.0965 26.6031 10.1202C26.6031 9.58806 26.5372 9.10108 26.4384 8.63767L25.0879 9.91598L25.0859 9.91794Z" fill="#121111"/>
<path d="M18.3639 4.67122C18.8832 4.46308 18.7321 2.74493 18.4783 2.17156C18.2244 1.59819 17.5346 1.34488 16.9591 1.59819C16.3836 1.85149 16.1317 2.51519 16.3836 3.08856C16.6375 3.66193 17.8427 4.87936 18.362 4.67122H18.3639Z" fill="#121111"/>
<path d="M17.0835 9.72749C16.8277 9.46633 16.4131 9.46044 16.1515 9.71375L16.0875 9.77462C15.8182 10.0338 15.8124 10.4678 16.072 10.7348L18.3585 13.0911C18.6046 13.3444 19.0018 13.3601 19.2673 13.1284L27.8202 5.63535C28.0973 5.39187 28.1283 4.96577 27.888 4.68497L27.8338 4.62017C27.5935 4.33742 27.173 4.306 26.894 4.55145L18.8894 11.5811L17.0816 9.72749H17.0835Z" fill="#121111"/>
<path fill-rule="evenodd" clip-rule="evenodd" d="M12.3981 25.6562C12.9542 25.3773 13.5607 25.2713 14.1769 25.3145L16.2134 25.4579C16.9671 25.5109 17.6705 25.4716 18.3545 25.3361C19.0618 25.1967 19.7341 24.9552 20.3833 24.6351L29.6609 20.0442C29.814 19.9676 29.9302 19.8243 29.9767 19.6633C30.0232 19.4983 30.0019 19.3255 29.907 19.1724C29.7016 18.8386 29.3741 18.5008 28.8548 18.3496C28.3045 18.1906 27.5353 18.2338 26.456 18.6893L20.1236 21.3579C20.05 21.8056 19.8233 22.1963 19.5016 22.4791C19.1373 22.7991 18.6549 22.9798 18.1356 22.9425L14.3261 22.6735C14.1672 22.6617 14.047 22.5223 14.0567 22.3613C14.0684 22.2002 14.2059 22.0785 14.3648 22.0883L18.1743 22.3573C18.5192 22.3809 18.8564 22.2631 19.118 22.0333C19.3699 21.8115 19.5384 21.4914 19.5636 21.1183C19.583 20.755 19.459 20.4232 19.2439 20.1738C19.0172 19.9087 18.6994 19.7458 18.3545 19.7202L13.2991 19.3648C13.27 19.3629 13.239 19.355 13.21 19.3432C12.2043 18.925 11.0746 18.5931 9.96241 18.7345C8.86762 18.8739 7.77476 19.4826 6.80398 20.9416L5 23.6592L10.6251 27.502L11.0553 26.8579C11.4079 26.3317 11.8633 25.9252 12.3981 25.6581V25.6562Z" fill="#121111"/>
</g>
<path d="M35.0094 12.9815C35.0094 8.72197 37.6676 5.96524 42.2701 5.96524C43.5897 5.96524 45.0081 6.2705 46.1869 6.8998L46.2667 10.0651H44.7028L44.1157 7.43049C43.6273 7.22855 43.1436 7.12523 42.6552 7.12523C40.4666 7.12523 38.5975 8.95209 38.5975 12.9862C38.5975 17.0203 40.3821 18.9082 42.6129 18.9082C42.8947 18.9082 43.1389 18.8895 43.3831 18.8284V17.9549C43.3831 16.7573 43.3643 15.6255 43.3408 14.4468L41.5139 14.2026V13.1083H47.6991V14.2026L46.6424 14.3434C46.6236 15.5598 46.6002 16.7573 46.6002 18.0159V18.866C45.1818 19.6784 43.8011 20.0635 42.0164 20.0635C37.8366 20.0635 35 17.4054 35 12.9862L35.0094 12.9815Z" fill="#121111"/>
<path d="M48.5957 14.7816C48.5957 11.3956 51.1928 9.54526 53.8087 9.54526C56.4246 9.54526 58.0073 11.3909 58.0073 13.8471C58.0073 14.2744 57.9651 14.5985 57.8852 14.9225H52.0241C52.165 17.0734 53.3203 18.0456 54.7433 18.0456C55.8376 18.0456 56.589 17.5806 57.1995 16.9513L57.9087 17.5994C57.0774 19.2008 55.6168 19.971 53.649 19.971C50.6856 19.971 48.5957 18.0456 48.5957 14.7769V14.7816ZM52.0241 13.8705H53.7477C54.7198 13.8705 54.9875 13.5042 54.9875 12.5932C54.9875 11.2547 54.3582 10.6066 53.6068 10.6066C52.8554 10.6066 52.1039 11.4003 52.0241 13.8705Z" fill="#121111"/>
<path d="M60.0919 17.1572C60.0919 16.448 60.1107 15.9173 60.1107 15.1284V11.2539H58.791V10.0564L60.2939 9.85441L61.3083 7.01315H63.3747L63.3325 9.8732H65.4646V11.2539H63.3325V16.9364C63.3325 17.8898 63.7598 18.3171 64.3657 18.3171C64.732 18.3171 65.0748 18.1763 65.4599 17.871L65.9671 18.3594C65.4224 19.3926 64.4878 19.9843 62.9849 19.9843C61.158 19.9843 60.0825 19.1719 60.0825 17.1666L60.0919 17.1572Z" fill="#121111"/>
<path d="M66.3574 6.34216H72.9089C76.3561 6.34216 77.6335 7.69939 77.6335 9.48399C77.6335 10.8647 76.8398 12.0388 74.1864 12.5272C77.2108 12.8935 78.4272 14.1098 78.4272 15.9367C78.4272 17.6227 77.1686 19.6703 72.1387 19.6703H66.3574V18.576L67.8791 18.4117C67.9213 16.7492 67.9213 15.0444 67.9213 13.3021V12.715C67.9213 11.0291 67.9213 9.30553 67.8791 7.60077L66.3574 7.4411V6.34686V6.34216ZM71.3074 7.52093C71.2652 9.04254 71.2652 10.6017 71.2652 12.1656H71.8334C73.557 12.1656 74.3507 11.3343 74.3507 9.73289C74.3507 8.23008 73.5993 7.52093 72.0166 7.52093H71.3074ZM71.2652 13.241C71.2652 15.1477 71.2652 16.829 71.3074 18.4962H71.9556C73.8388 18.4962 74.9378 17.6227 74.9378 15.8991C74.9378 14.0535 73.9656 13.241 71.9556 13.241H71.2652Z" fill="#121111"/>
<path d="M79.6211 14.7816C79.6211 11.3956 82.2182 9.54526 84.8341 9.54526C87.45 9.54526 89.0327 11.3909 89.0327 13.8471C89.0327 14.2744 88.9904 14.5985 88.9106 14.9225H83.0495C83.1904 17.0734 84.3457 18.0456 85.7687 18.0456C86.863 18.0456 87.6144 17.5806 88.2249 16.9513L88.9341 17.5994C88.1028 19.2008 86.6422 19.971 84.6744 19.971C81.7157 19.971 79.6258 18.0456 79.6258 14.7769L79.6211 14.7816ZM83.0495 13.8705H84.7731C85.7452 13.8705 86.0082 13.5042 86.0082 12.5932C86.0082 11.2547 85.3789 10.6066 84.6275 10.6066C83.876 10.6066 83.1246 11.4003 83.0448 13.8705H83.0495Z" fill="#121111"/>
<path d="M90.1667 18.7171L91.261 18.4729C91.2845 17.5008 91.2845 16.261 91.2845 15.4109V14.2322C91.2845 13.1144 91.261 12.6918 91.2234 11.8793L89.9883 11.6962V10.9072L93.9849 9.54526L94.3513 9.77068L94.4734 11.2312C95.5301 9.9961 96.521 9.54526 97.7186 9.54526C99.461 9.54526 100.64 10.7005 100.64 13.0346V15.4062C100.64 16.2985 100.64 17.5149 100.659 18.5105L101.673 18.7124V19.6658H96.3191V18.7124L97.3758 18.487C97.3945 17.4914 97.3945 16.2751 97.3945 15.4062V13.2741C97.3945 11.9779 97.0705 11.5083 96.2768 11.5083C95.7696 11.5083 95.1403 11.7713 94.5344 12.2362V15.4015C94.5344 16.2516 94.5344 17.5102 94.5532 18.5058L95.5066 18.7077V19.6611H90.1714V18.7077L90.1667 18.7171Z" fill="#121111"/>
<path d="M102.672 14.7816C102.672 11.3956 105.269 9.54526 107.885 9.54526C110.501 9.54526 112.083 11.3909 112.083 13.8471C112.083 14.2744 112.041 14.5985 111.961 14.9225H106.1C106.241 17.0734 107.396 18.0456 108.819 18.0456C109.914 18.0456 110.665 17.5806 111.276 16.9513L111.985 17.5994C111.154 19.2008 109.693 19.971 107.725 19.971C104.762 19.971 102.672 18.0456 102.672 14.7769V14.7816ZM106.1 13.8705H107.824C108.796 13.8705 109.064 13.5042 109.064 12.5932C109.064 11.2547 108.434 10.6066 107.683 10.6066C106.932 10.6066 106.18 11.4003 106.1 13.8705Z" fill="#121111"/>
<path d="M113.197 18.7166L114.315 18.4912C114.333 17.458 114.357 16.4436 114.357 15.4104V11.2495H113.037V10.052L114.399 9.88759C114.624 8.04194 115.212 7.14965 116.141 6.21508C117.053 5.304 118.696 4.73575 120.561 4.73575C122.021 4.73575 123.238 5.24295 123.421 6.45929C123.402 7.22948 122.914 7.79774 122.064 7.79774C121.354 7.79774 120.805 7.35159 120.237 6.27613L119.809 5.58578C119.443 5.76893 119.1 6.01314 118.795 6.3184C118.043 7.06981 117.658 7.84 117.579 9.8688H121.594L123.604 9.54476L123.952 9.77018L123.891 12.649V15.4057C123.891 16.2558 123.891 17.5144 123.914 18.51L124.928 18.7119V19.6653H119.532V18.7119L120.627 18.4677C120.645 17.4956 120.645 16.2558 120.645 15.4057V13.9452C120.645 12.7476 120.627 12.0573 120.584 11.2448H117.583V15.4057C117.583 16.4201 117.602 17.4345 117.626 18.4677L118.804 18.7119V19.6653H113.206V18.7119L113.197 18.7166Z" fill="#121111"/>
<path d="M126.871 17.1572C126.871 16.448 126.89 15.9173 126.89 15.1284V11.2539H125.57V10.0564L127.073 9.85441L128.088 7.01315H130.154L130.112 9.8732H132.244V11.2539H130.112V16.9364C130.112 17.8898 130.539 18.3171 131.145 18.3171C131.511 18.3171 131.854 18.1763 132.239 17.871L132.746 18.3594C132.202 19.3926 131.267 19.9843 129.764 19.9843C127.937 19.9843 126.862 19.1719 126.862 17.1666L126.871 17.1572Z" fill="#121111"/>
<path d="M133.355 19.0394L133.417 16.5645H135.037L135.384 18.5745C135.873 18.7576 136.338 18.8609 136.906 18.8609C138.061 18.8609 138.709 18.4759 138.709 17.6634C138.709 17.0341 138.343 16.6067 137.005 16.2216L135.91 15.8976C134.328 15.4327 133.454 14.3948 133.454 12.8732C133.454 11.0087 134.957 9.54819 137.695 9.54819C138.893 9.54819 139.846 9.85345 140.898 10.3794L140.757 12.5914H139.132L138.728 10.8444C138.404 10.7223 138.057 10.6847 137.61 10.6847C136.699 10.6847 136.089 11.0698 136.089 11.8212C136.089 12.3707 136.394 12.7558 137.794 13.1784L138.789 13.4649C140.715 14.0332 141.485 15.0851 141.485 16.6067C141.485 18.7388 139.743 19.974 136.882 19.974C135.563 19.974 134.426 19.6687 133.355 19.0394Z" fill="#121111"/>
<path d="M150.162 6.34216H156.573V7.4364L155.07 7.59608C155.028 9.23978 155.028 10.9211 155.028 12.6258V13.3772C155.028 15.0397 155.028 16.7445 155.07 18.407L156.573 18.5713V19.6656H150.162V18.5713L151.581 18.4304C151.623 16.768 151.623 15.0632 151.623 13.4195H147.302C147.302 15.2276 147.302 16.829 147.345 18.4304L148.763 18.5713V19.6656H142.371V18.5713L143.85 18.407C143.893 16.7633 143.893 15.082 143.893 13.3772V12.6258C143.893 10.9633 143.893 9.27735 143.85 7.59608L142.371 7.4364V6.34216H148.763V7.4364L147.345 7.57729C147.302 9.23978 147.302 10.9258 147.302 12.2219H151.623C151.623 10.6815 151.623 9.11768 151.581 7.57729L150.162 7.4364V6.34216Z" fill="#121111"/>
<path d="M157.262 14.7816C157.262 11.3956 159.859 9.54526 162.475 9.54526C165.091 9.54526 166.673 11.3909 166.673 13.8471C166.673 14.2744 166.631 14.5985 166.551 14.9225H160.69C160.831 17.0734 161.986 18.0456 163.409 18.0456C164.504 18.0456 165.255 17.5806 165.866 16.9513L166.575 17.5994C165.743 19.2008 164.283 19.971 162.315 19.971C159.356 19.971 157.266 18.0456 157.266 14.7769L157.262 14.7816ZM160.69 13.8705H162.414C163.386 13.8705 163.649 13.5042 163.649 12.5932C163.649 11.2547 163.02 10.6066 162.268 10.6066C161.517 10.6066 160.765 11.4003 160.685 13.8705H160.69Z" fill="#121111"/>
<path d="M167.425 18.7172L168.543 18.473C168.562 17.4586 168.585 16.4254 168.585 15.411V6.91072L167.327 6.70877V5.85874L171.586 4.94766L171.91 5.1496L171.831 7.99086V15.4157C171.831 16.4489 171.849 17.4633 171.873 18.4965L172.991 18.7219V19.6753H167.435V18.7219L167.425 18.7172Z" fill="#121111"/>
<path d="M173.766 23.3203L174.903 23.0761C174.922 21.7987 174.945 20.7232 174.945 19.7276V14.2283C174.945 13.1105 174.926 12.6879 174.884 11.8754L173.625 11.6923V10.9033L177.603 9.54135L177.946 9.74329L178.026 10.8798C178.9 9.96402 179.89 9.54135 181.027 9.54135C183.239 9.54135 185 11.3494 185 14.712C185 18.0745 182.953 19.9671 180.661 19.9671C179.604 19.9671 178.773 19.6196 178.106 18.9105V19.6995C178.106 20.6951 178.125 21.7705 178.148 23.0056L179.444 23.3109V24.2643H173.766V23.3109V23.3203ZM178.167 11.8801V17.7599C178.552 18.0839 178.979 18.2671 179.487 18.2671C180.703 18.2671 181.558 17.1728 181.558 14.7589C181.558 12.345 180.745 11.3119 179.548 11.3119C179.04 11.3119 178.594 11.5561 178.167 11.8801Z" fill="#121111"/>
<defs>
<clipPath id="clip0_14995_17849">
<rect width="25" height="26" fill="white" transform="translate(5 1.5)"/>
</clipPath>
</defs>
</svg>
