<svg width="85" height="85" viewBox="0 0 85 85" fill="none" xmlns="http://www.w3.org/2000/svg">
<path fill-rule="evenodd" clip-rule="evenodd" d="M45.143 70.4327C54.9529 69.7649 64.9666 66.8655 70.6824 59.6514C76.6519 52.1171 77.0432 42.4795 74.1531 33.8181C71.1256 24.7452 65.3273 15.6794 55.1061 12.9719C45.2108 10.3507 35.4261 16.0078 26.7164 21.2525C18.5399 26.1762 10.3204 32.1119 9.01895 40.7244C7.71403 49.3601 13.3086 57.2458 20.3968 63.075C27.0752 68.5674 35.9277 71.0601 45.143 70.4327Z" fill="#00A88F"/>
<path d="M60.0756 17.9173L35.0616 17.8948C33.0215 17.8948 31.3672 19.7208 31.3672 21.9795L31.3164 61.1974C31.3113 63.4561 32.9657 65.2934 35.0058 65.2934L62.4659 65.3158C64.506 65.3158 66.1604 63.4898 66.1604 61.2311L66.2111 24.8169L60.0756 17.9173Z" fill="#80DBFF"/>
<path d="M60.0756 24.8176L60.0756 17.9173L66.1604 24.8176H60.0756Z" fill="#80DBFF"/>
<path d="M60.0756 17.9173L35.0616 17.8948C33.0215 17.8948 31.3672 19.7208 31.3672 21.9795L31.3164 61.1974C31.3113 63.4561 32.9657 65.2934 35.0058 65.2934L62.4659 65.3158C64.506 65.3158 66.1604 63.4898 66.1604 61.2311L66.2111 24.8169L60.0756 17.9173ZM60.0756 17.9173L60.0756 24.8176H66.1604L60.0756 17.9173Z" stroke="#121111" stroke-width="3" stroke-miterlimit="10" stroke-linecap="round" stroke-linejoin="round"/>
<path d="M38.4746 37.0591L59.0446 37.0591" stroke="#121111" stroke-width="3" stroke-miterlimit="10" stroke-linecap="round" stroke-linejoin="round"/>
<path d="M38.4746 44.479L59.0446 44.479" stroke="#121111" stroke-width="3" stroke-miterlimit="10" stroke-linecap="round" stroke-linejoin="round"/>
<path d="M38.4746 29.6399L59.0446 29.6399" stroke="#121111" stroke-width="3" stroke-miterlimit="10" stroke-linecap="round" stroke-linejoin="round"/>
<circle cx="68" cy="55" r="15.5" fill="white" stroke="black" stroke-width="3"/>
<path d="M68.63 59.761L64.2141 55.7612C61.8141 53.3612 65.3421 48.7533 68.63 52.4812C71.9179 48.7533 75.4298 53.3772 73.0459 55.7612L68.63 59.761Z" fill="black" stroke="black" stroke-width="2" stroke-linecap="round" stroke-linejoin="round"/>
</svg>
