<svg width="85" height="85" viewBox="0 0 85 85" fill="none" xmlns="http://www.w3.org/2000/svg">
<path fill-rule="evenodd" clip-rule="evenodd" d="M45.2133 70.6348C55.0232 69.9669 65.037 67.0675 70.7527 59.8535C76.7222 52.3191 77.1136 42.6815 74.2234 34.0201C71.1959 24.9472 65.3976 15.8814 55.1764 13.1739C45.2812 10.5527 35.4964 16.2098 26.7867 21.4545C18.6102 26.3782 10.3907 32.314 9.08926 40.9264C7.78435 49.5621 13.379 57.4478 20.4671 63.2771C27.1455 68.7694 35.9981 71.2622 45.2133 70.6348Z" fill="#00A88F"/>
<path d="M25.0242 38.686L32.6781 36.6352L37.0702 53.0269L29.4164 55.0778C27.6079 55.5623 25.7421 54.4858 25.2578 52.6783L22.6225 42.8433C22.1382 41.0358 23.2158 39.1706 25.0242 38.686Z" fill="white"/>
<path fill-rule="evenodd" clip-rule="evenodd" d="M53.9604 16.562C54.7494 15.4063 55.882 14.6147 57.1614 14.2769C57.929 14.0742 58.7502 14.0356 59.5794 14.178C61.7796 14.5606 63.5136 16.1328 64.0905 18.2856L67.2216 29.9711C69.936 30.0093 72.4063 31.8262 73.1433 34.5769C73.8804 37.3275 72.6495 40.1361 70.3178 41.5264L73.5307 53.5171C74.1251 55.7355 73.3326 58.0691 71.5054 59.4722C70.9007 59.9271 70.2275 60.2584 69.5278 60.4459C68.1063 60.8268 66.5583 60.6435 65.2275 59.8756L63.0784 58.6375L43.0078 57.1366C44.143 60.2835 45.4447 62.742 45.9027 63.5668C46.6559 64.9215 46.675 66.5438 45.9321 67.9305C45.3177 69.0754 44.1892 69.8592 42.934 70.1956L38.9533 71.2622C37.0104 71.7828 34.9932 70.986 33.9334 69.2788C32.8545 67.5381 30.9764 64.1435 29.5286 59.648C25.6629 60.1384 21.9199 57.7157 20.8841 53.8502L18.2488 44.0152C17.1186 39.7971 19.6336 35.4455 23.853 34.3149L33.3135 31.78L52.4677 18.7303L53.9604 16.562ZM58.8161 18.6328C58.706 18.6155 58.5177 18.6015 58.3103 18.6586C58.1029 18.7156 57.8762 18.8441 57.6898 19.1108L55.9649 21.6341C55.804 21.8646 55.6121 22.0695 55.3731 22.2273L46.1275 28.5283L36.8819 34.8294L41.6137 52.4889L63.9287 54.157C64.2641 54.1842 64.5954 54.2834 64.8894 54.4623L67.4917 55.9565C68.0878 56.3005 68.5761 56.0159 68.7495 55.8757C68.9338 55.7326 69.3328 55.3447 69.1571 54.6891L59.7169 19.4575C59.547 18.8237 59.0254 18.6705 58.8161 18.6328ZM32.6781 36.6352L25.0242 38.686C23.2158 39.1706 22.1382 41.0358 22.6225 42.8433L25.2578 52.6783C25.7421 54.4858 27.6079 55.5623 29.4164 55.0778L37.0702 53.0269L32.6781 36.6352ZM38.7038 57.3363L32.3235 58.7404C34.0603 63.0583 36.2144 66.3985 37.6142 68.3119C37.803 68.5709 38.1794 68.6894 38.5337 68.6114L43.0078 67.6213C43.2632 67.5651 43.4541 67.4184 43.5511 67.2385C43.648 67.0585 43.6516 66.8458 43.5275 66.6541C42.427 64.9498 40.3618 61.4878 38.7038 57.3363Z" fill="black"/>
<path d="M32.3235 58.7404L38.7038 57.3363C40.3618 61.4878 42.427 64.9498 43.5275 66.6541C43.6516 66.8458 43.648 67.0585 43.5511 67.2385C43.4541 67.4184 43.2632 67.5651 43.0078 67.6213L38.5337 68.6114C38.1794 68.6894 37.803 68.5709 37.6142 68.3119C36.2144 66.3985 34.0603 63.0583 32.3235 58.7404Z" fill="#80DBFF"/>
<path d="M58.0339 18.2964C58.2384 18.2401 58.4245 18.2551 58.5333 18.2732C58.7403 18.3121 59.2563 18.469 59.4274 19.1075L68.9376 54.6001C69.1146 55.2606 68.7225 55.6487 68.5412 55.7917C68.3707 55.9318 67.8898 56.2155 67.2993 55.8664L64.7211 54.3495C64.4297 54.168 64.102 54.0665 63.7705 54.0373L41.7206 52.2415L36.9537 34.4511L55.1516 21.871C55.3868 21.7136 55.5753 21.5084 55.733 21.2774L57.4234 18.748C57.6061 18.4808 57.8293 18.3527 58.0339 18.2964Z" fill="#80DBFF"/>
</svg>
