<svg width="95" height="95" viewBox="0 0 95 95" fill="none" xmlns="http://www.w3.org/2000/svg">
<path fill-rule="evenodd" clip-rule="evenodd" d="M50.143 75.4327C59.9529 74.7649 69.9666 71.8655 75.6824 64.6514C81.6519 57.1171 82.0432 47.4795 79.1531 38.8181C76.1256 29.7452 70.3273 20.6794 60.1061 17.9719C50.2108 15.3507 40.4261 21.0078 31.7164 26.2525C23.5399 31.1762 15.3203 37.1119 14.019 45.7244C12.714 54.3601 18.3086 62.2458 25.3968 68.075C32.0752 73.5674 40.9277 76.0601 50.143 75.4327Z" fill="#00A88F"/>
<path d="M78 31.1923V69.9231C78 72.1654 76.155 74 73.9 74H43.15C39.747 74 37 71.2685 37 67.8846V25.0769C37 22.8346 38.845 21 41.1 21H67.75L78 31.1923Z" fill="#E6EBEF"/>
<path d="M68 21V29C68 30.1 68.9 31 70 31H78L68 21Z" fill="#E1DEDD"/>
<path d="M35.2246 64.0566L30.839 59.671L42.9141 47.5959L47.2997 51.9815L35.2246 64.0566Z" fill="#0B4F6C"/>
<path d="M25.9239 68.9669C24.3158 67.3588 24.3158 64.7274 25.9239 63.1193L31.5668 57.4765C32.3708 56.6725 33.6865 56.6725 34.4905 57.4765L37.4143 60.4002C38.2183 61.2043 38.2183 62.52 37.4143 63.324L31.7714 68.9669C30.1633 70.5749 27.532 70.5749 25.9239 68.9669Z" fill="#053C4F"/>
<path d="M49 60C56.732 60 63 53.732 63 46C63 38.268 56.732 32 49 32C41.268 32 35 38.268 35 46C35 53.732 41.268 60 49 60Z" fill="#7FDBFF"/>
<path d="M79.5647 29.8236L69.2011 19.4562C68.9109 19.1659 68.5171 19 68.1025 19H41.1571C38.0065 19 35.4571 21.5504 35.4571 24.7021V38.7188C34.3378 40.8545 33.6953 43.2805 33.6953 45.8516C33.6953 48.4227 34.3171 50.7865 35.4156 52.8807L32.8662 55.4311C31.9542 55.4311 31.0422 55.7836 30.3375 56.4885L24.6789 62.1491C23.6011 63.2274 23 64.6581 23 66.1717C23 67.6853 23.6011 69.1368 24.6789 70.1943C25.7982 71.3139 27.2491 71.853 28.7 71.853C30.1509 71.853 31.6225 71.2932 32.7211 70.1943L35.4364 67.478V70.2979C35.4364 73.4496 37.9858 76 41.1364 76H74.3C77.4505 76 80 73.4496 80 70.2979V30.9225C80 30.5078 79.8342 30.1139 79.544 29.8236H79.5647ZM69.6571 24.3081L74.7146 29.3674H70.1753C69.8851 29.3674 69.6571 29.1393 69.6571 28.849V24.3081ZM36.8044 45.8516C36.8044 39.092 42.2971 33.5973 49.0542 33.5973C55.8113 33.5973 61.304 39.092 61.304 45.8516C61.304 52.6111 55.8113 58.1059 49.0542 58.1059C42.2971 58.1059 36.8044 52.6111 36.8044 45.8516ZM39.3538 57.7534L38.048 59.0597L35.8509 56.8618L37.1567 55.5555C37.82 56.3641 38.5455 57.0899 39.3538 57.7534ZM30.5655 68.0171C29.5498 69.0331 27.9124 69.0331 26.8967 68.0171C26.3993 67.5195 26.1298 66.8767 26.1298 66.1924C26.1298 65.5082 26.3993 64.8447 26.8967 64.3678L32.5553 58.7072C32.6796 58.5828 32.8455 58.562 32.9284 58.562C33.0113 58.562 33.1564 58.562 33.3015 58.7072L36.224 61.6308C36.3484 61.7552 36.3691 61.9211 36.3691 62.004C36.3691 62.0869 36.3691 62.2321 36.224 62.3772L30.5655 68.0378V68.0171ZM76.9324 70.3394C76.9324 71.7701 75.7716 72.9312 74.3415 72.9312H41.1571C39.7269 72.9312 38.5662 71.7701 38.5662 70.3394V64.3678C39.1465 63.7043 39.4575 62.8749 39.4575 62.0455L42.0069 59.4951C44.1211 60.594 46.5047 61.2161 49.0335 61.2161C57.4902 61.2161 64.3924 54.3321 64.3924 45.8516C64.3924 37.371 57.5109 30.4871 49.0335 30.4871C44.9916 30.4871 41.3022 32.0837 38.5662 34.6548V24.7021C38.5662 23.2714 39.7269 22.1102 41.1571 22.1102H53.8525H66.548V28.849C66.548 30.8396 68.1855 32.4776 70.1753 32.4776H76.9116V70.3187L76.9324 70.3394ZM53.324 52.3208C52.7229 51.7195 52.7229 50.7243 53.324 50.123C54.9407 48.5056 55.5004 46.0589 54.7542 43.8818C54.4847 43.0731 54.8993 42.1815 55.7076 41.912C56.516 41.6424 57.4073 42.0571 57.6767 42.8658C58.8167 46.1626 57.9669 49.8534 55.5004 52.3208C55.1895 52.6319 54.7956 52.777 54.4018 52.777C54.008 52.777 53.6142 52.6319 53.3033 52.3208H53.324Z" fill="#050819"/>
</svg>
