<svg xmlns="http://www.w3.org/2000/svg" width="95" height="95" viewBox="0 0 95 95" fill="none">
  <path fill-rule="evenodd" clip-rule="evenodd"
    d="M50.143 75.4327C59.9529 74.7649 69.9666 71.8655 75.6824 64.6514C81.6519 57.1171 82.0432 47.4795 79.1531 38.8181C76.1256 29.7452 70.3273 20.6794 60.1061 17.9719C50.2108 15.3507 40.4261 21.0078 31.7164 26.2525C23.5399 31.1762 15.3203 37.1119 14.019 45.7244C12.714 54.3601 18.3086 62.2458 25.3968 68.075C32.0752 73.5674 40.9277 76.0601 50.143 75.4327Z"
    fill="#00A88F"/>
  <path
    d="M67.0612 27.0001H28.9472C25.1051 27.0001 22 30.1977 22 34.1353V54.7586C22 58.7047 25.1134 61.8939 28.9472 61.8939H52.6536V68.9355L59.5095 61.8939H67.0529C70.895 61.8939 74 58.6962 74 54.7586V34.1438C74.0083 30.1977 70.9033 27.0001 67.0612 27.0001Z"
    fill="white" stroke="#121111" stroke-width="3" stroke-miterlimit="10" stroke-linecap="round"
    stroke-linejoin="round"/>
  <path
    d="M34.9336 42.0157C36.3181 42.0157 37.4863 43.1761 37.4863 44.6641C37.4863 46.1521 36.3181 47.3126 34.9336 47.3126C33.5493 47.3123 32.3819 46.152 32.3818 44.6641C32.3818 43.1762 33.5493 42.0159 34.9336 42.0157ZM48.166 42.0157C49.5505 42.0158 50.7178 43.1762 50.7178 44.6641C50.7178 46.1521 49.5505 47.3125 48.166 47.3126C46.7815 47.3126 45.6133 46.1521 45.6133 44.6641C45.6133 43.1761 46.7815 42.0157 48.166 42.0157ZM61.083 42.0157C62.4676 42.0157 63.6357 43.1761 63.6357 44.6641C63.6357 46.1521 62.4676 47.3126 61.083 47.3126C59.6985 47.3125 58.5313 46.1521 58.5312 44.6641C58.5312 43.1761 59.6985 42.0158 61.083 42.0157Z"
    fill="#80DDFF" stroke="#80DDFF" stroke-width="2"/>
</svg>
