<svg width="95" height="95" viewBox="0 0 95 95" fill="none" xmlns="http://www.w3.org/2000/svg">
<path fill-rule="evenodd" clip-rule="evenodd" d="M50.143 75.4327C59.9529 74.7649 69.9666 71.8655 75.6824 64.6514C81.6519 57.1171 82.0432 47.4795 79.1531 38.8181C76.1256 29.7452 70.3273 20.6794 60.1061 17.9719C50.2108 15.3507 40.4261 21.0078 31.7164 26.2525C23.5399 31.1762 15.3203 37.1119 14.019 45.7244C12.714 54.3601 18.3086 62.2458 25.3968 68.075C32.0752 73.5674 40.9277 76.0601 50.143 75.4327Z" fill="#00A88F"/>
<path d="M95 48L80 39.3398L80 56.6603L95 48ZM22 48L22 49.5L81.5 49.5L81.5 48L81.5 46.5L22 46.5L22 48Z" fill="#121111"/>
<circle cx="16" cy="48" r="7.5" fill="white" stroke="#121111" stroke-width="3"/>
<circle cx="42" cy="48" r="7.5" fill="white" stroke="#121111" stroke-width="3"/>
<circle cx="67" cy="48" r="7.5" fill="white" stroke="#121111" stroke-width="3"/>
</svg>
