<svg width="85" height="85" viewBox="0 0 85 85" fill="none" xmlns="http://www.w3.org/2000/svg">
<path fill-rule="evenodd" clip-rule="evenodd" d="M45.143 70.4327C54.9529 69.7649 64.9666 66.8655 70.6824 59.6514C76.6519 52.1171 77.0432 42.4795 74.1531 33.8181C71.1256 24.7452 65.3273 15.6794 55.1061 12.9718C45.2108 10.3507 35.4261 16.0078 26.7164 21.2525C18.5399 26.1762 10.3203 32.1119 9.01895 40.7244C7.71403 49.3601 13.3086 57.2458 20.3968 63.075C27.0752 68.5674 35.9277 71.0601 45.143 70.4327Z" fill="#00A88F"/>
<path d="M79.6306 57.1525L73.8642 50.2312L68.0977 57.1525V74.2631H79.6306V57.1525Z" fill="#7ED6FF" stroke="#121111" stroke-width="3" stroke-miterlimit="10" stroke-linecap="round" stroke-linejoin="round"/>
<path d="M67.5614 52.332H28.3418C28.3418 52.332 28.3418 28.144 47.9479 28.144C67.5614 28.144 67.5614 52.332 67.5614 52.332Z" fill="white" stroke="#121111" stroke-width="3" stroke-miterlimit="10" stroke-linecap="round" stroke-linejoin="round"/>
<path d="M73.7541 32.4156L48.0616 21.4736L22.3691 32.4156L48.0616 44.7161L73.7541 32.4156V50.1052Z" fill="white"/>
<path d="M73.7541 32.4156L48.0616 21.4736L22.3691 32.4156L48.0616 44.7161L73.7541 32.4156ZM73.7541 32.4156V50.1052" stroke="#121111" stroke-width="3" stroke-miterlimit="10" stroke-linecap="round" stroke-linejoin="round"/>
</svg>
