<svg width="95" height="95" viewBox="0 0 95 95" fill="none" xmlns="http://www.w3.org/2000/svg">
<path fill-rule="evenodd" clip-rule="evenodd" d="M50.143 75.4327C59.9529 74.7649 69.9666 71.8655 75.6824 64.6514C81.6519 57.1171 82.0432 47.4795 79.1531 38.8181C76.1256 29.7452 70.3273 20.6794 60.1061 17.9719C50.2108 15.3507 40.4261 21.0078 31.7164 26.2525C23.5399 31.1762 15.3203 37.1119 14.019 45.7244C12.714 54.3601 18.3086 62.2458 25.3968 68.075C32.0752 73.5674 40.9277 76.0601 50.143 75.4327Z" fill="#00A88F"/>
<path d="M46 55.4954L66.0676 21L79 28.3303L58.9324 62.3945L46.8919 68L46 55.4954Z" fill="white" stroke="black"/>
<path d="M66.7564 19.0057C66.5128 19.0231 66.2772 19.1006 66.0704 19.2313C65.8636 19.3621 65.6919 19.5421 65.5704 19.7555L45.5013 54.7593C45.3458 55.0202 45.2728 55.3225 45.292 55.6262L46.292 68.6062C46.3126 68.8493 46.3917 69.0836 46.5225 69.2888C46.6533 69.4941 46.8318 69.6641 47.0426 69.7841C47.2534 69.9042 47.49 69.9706 47.732 69.9776C47.9741 69.9847 48.2141 69.9321 48.4314 69.8246L60.0822 64.2249C60.3471 64.0895 60.5658 63.8773 60.7101 63.6157L80.8024 28.5884C80.9975 28.2461 81.0507 27.8401 80.9506 27.4585C80.8504 27.077 80.605 26.7505 80.2676 26.55L67.6168 19.1931C67.3553 19.0447 67.0554 18.9794 66.7564 19.0057ZM67.4075 22.5436L77.5002 28.401L74.8259 33.0635L64.7332 27.1826L67.4075 22.5436ZM63.2449 29.7833L67.0354 31.9857L53.0127 56.4462L49.2221 54.2439L63.2449 29.7833ZM69.6168 33.4852L73.3376 35.6642L59.2915 60.1013L55.594 57.9457L69.6168 33.4852ZM48.4082 57.2194L57.1055 62.3036L49.1058 66.1695L48.4082 57.2194ZM12.4791 59.4687C12.1247 59.4709 11.7828 59.6005 11.5147 59.8341C11.2467 60.0676 11.0702 60.3899 11.0169 60.7429C10.9636 61.0959 11.0372 61.4565 11.2242 61.7598C11.4112 62.063 11.6996 62.2891 12.0373 62.3974C13.1516 62.8038 13.1785 63.0283 13.2465 63.6391C13.3145 64.25 13.0706 65.3434 12.7349 66.5678C12.3992 67.7922 11.9695 69.1449 12.1536 70.6446C12.3376 72.1442 13.4867 73.6731 15.3627 74.323C18.1605 75.2923 21.0323 74.1647 23.6881 73.2687C26.2271 72.412 28.5509 71.7804 30.0832 72.0972C30.0831 72.2114 30.0774 72.2125 30.0599 72.4252C30.0264 72.8351 29.9285 73.3973 30.153 74.1356C30.3774 74.874 31.1915 75.6502 32.0599 75.846C34.3989 76.3733 36.9296 75.4465 39.1061 74.5808C41.2827 73.715 43.013 72.7533 43.013 72.7533C43.1924 72.6649 43.3522 72.5411 43.4831 72.3892C43.614 72.2373 43.7133 72.0605 43.7749 71.8692C43.8366 71.6778 43.8594 71.476 43.8421 71.2756C43.8247 71.0752 43.7675 70.8804 43.6739 70.7027C43.5802 70.5251 43.4521 70.3682 43.2971 70.2415C43.142 70.1147 42.9633 70.0207 42.7714 69.965C42.5796 69.9093 42.3786 69.8931 42.1804 69.9172C41.9821 69.9414 41.7908 70.0055 41.6177 70.1057C41.6177 70.1057 40.0006 71.0022 38.0132 71.7926C36.1602 72.5296 33.9981 72.9822 33.0133 72.8938C33.0136 72.7949 33.0011 72.8323 33.0133 72.683C33.046 72.2836 33.1364 71.7437 32.9436 71.0195C32.7507 70.2952 31.9934 69.4592 31.1297 69.2154C28.2648 68.4063 25.4026 69.5414 22.7578 70.4337C20.1131 71.326 17.7204 71.9665 16.3395 71.4881C15.199 71.0929 15.1795 70.8608 15.1069 70.2697C15.0344 69.6786 15.2604 68.5859 15.5953 67.3644C15.9302 66.143 16.3669 64.7873 16.1999 63.2877C16.033 61.788 14.9194 60.2404 13.0605 59.5624C12.8748 59.4924 12.6772 59.4606 12.4791 59.4687Z" fill="black"/>
</svg>
