<svg xmlns="http://www.w3.org/2000/svg" width="85" height="85" viewBox="0 0 85 85" fill="none">
  <path fill-rule="evenodd" clip-rule="evenodd" d="M45.143 70.4327C54.9529 69.7649 64.9666 66.8655 70.6824 59.6514C76.6519 52.1171 77.0432 42.4795 74.1531 33.8181C71.1256 24.7452 65.3273 15.6794 55.1061 12.9718C45.2108 10.3507 35.4261 16.0078 26.7164 21.2525C18.5399 26.1762 10.3203 32.1119 9.01895 40.7244C7.71403 49.3601 13.3086 57.2458 20.3968 63.075C27.0752 68.5674 35.9277 71.0601 45.143 70.4327Z" fill="#00A88F"/>
  <rect x="20.5742" y="29.6006" width="52.4737" height="30.8484" rx="2.5" fill="#80DDFF" stroke="#121111" stroke-width="3"/>
  <path d="M36.9385 28.1007V23.5789C36.9385 21.922 38.2816 20.5789 39.9385 20.5789H54.6236C56.2804 20.5789 57.6236 21.922 57.6236 23.5789V28.1007" stroke="#121111" stroke-width="3"/>
  <line x1="29.9775" y1="29.981" x2="29.9775" y2="60.0684" stroke="black" stroke-width="3"/>
  <line x1="64.7656" y1="30.9214" x2="64.7656" y2="61.0088" stroke="black" stroke-width="3"/>
  <circle cx="65.316" cy="55.0001" r="13.7105" fill="white" stroke="black" stroke-width="3"/>
  <path d="M64.4979 56.1956C64.2831 56.0844 64.1706 55.9362 64.1501 55.751L63.5264 48.8051V46.7244C63.5264 46.4157 63.7002 46.1564 64.0479 45.9465C64.3956 45.7366 64.825 45.6316 65.3363 45.6316C65.8476 45.6316 66.2668 45.7366 66.6043 45.9465C66.9417 46.1564 67.1053 46.4157 67.1053 46.7244V48.8113L66.4816 55.7572C66.4611 55.9424 66.3487 56.0844 66.1544 56.2017C65.9601 56.3129 65.684 56.3684 65.3363 56.3684C64.9886 56.3623 64.7024 56.3067 64.4979 56.1956Z" fill="#121111"/>
  <path d="M63.5264 59.035C63.5264 59.5375 63.7022 59.9606 64.0539 60.3132C64.4057 60.6658 64.819 60.8421 65.3026 60.8421C65.8039 60.8421 66.2259 60.6658 66.5776 60.3132C66.9294 59.9606 67.1053 59.5375 67.1053 59.035C67.1053 58.559 66.9294 58.1447 66.5776 57.7921C66.2259 57.4395 65.8039 57.2632 65.3026 57.2632C64.819 57.2632 64.4057 57.4483 64.0539 57.7921C63.7022 58.1359 63.5264 58.559 63.5264 59.035Z" fill="#121111"/>
</svg>
