<svg xmlns="http://www.w3.org/2000/svg" width="95" height="95" viewBox="0 0 95 95" fill="none">
  <path fill-rule="evenodd" clip-rule="evenodd" d="M49.2133 75.6349C59.0232 74.967 69.0369 72.0676 74.7527 64.8536C80.7222 57.3193 81.1136 47.6816 78.2234 39.0202C75.1959 29.9474 69.3976 20.8815 59.1764 18.174C49.2812 15.5528 39.4964 21.2099 30.7867 26.4547C22.6102 31.3784 14.3907 37.3141 13.0893 45.9265C11.7843 54.5622 17.379 62.4479 24.4671 68.2772C31.1455 73.7695 39.9981 76.2623 49.2133 75.6349Z" fill="#00A88F"/>
  <path d="M62.4376 22.6722L34.4807 22.6494C32.2006 22.6494 30.3516 24.5022 30.3516 26.794L30.2949 66.5868C30.2893 68.8786 32.1382 70.7429 34.4184 70.7429L65.1091 70.7657C67.3892 70.7657 69.2382 68.9129 69.2382 66.6211L69.2949 29.673L62.4376 22.6722Z" fill="white"/>
  <path d="M62.4376 29.6737L62.4376 22.6722L69.2382 29.6737H62.4376Z" fill="white"/>
  <path d="M62.4376 22.6722L34.4807 22.6494C32.2006 22.6494 30.3516 24.5022 30.3516 26.794L30.2949 66.5868C30.2893 68.8786 32.1382 70.7429 34.4184 70.7429L65.1091 70.7657C67.3892 70.7657 69.2382 68.9129 69.2382 66.6211L69.2949 29.673L62.4376 22.6722ZM62.4376 22.6722L62.4376 29.6737H69.2382L62.4376 22.6722Z" stroke="#1B1B1B" stroke-width="3" stroke-miterlimit="10" stroke-linecap="round" stroke-linejoin="round"/>
  <path d="M49.6666 39.8549C47.8005 39.8549 46.291 41.358 46.291 43.216V45.5273H53.0422V43.216C53.0346 41.358 51.5251 39.8549 49.6666 39.8549Z" fill="#D8F2F2"/>
  <path d="M49.6666 39.8549C51.0826 39.8549 52.2305 38.712 52.2305 37.302C52.2305 35.892 51.0826 34.749 49.6666 34.749C48.2506 34.749 47.1027 35.892 47.1027 37.302C47.1027 38.712 48.2506 39.8549 49.6666 39.8549Z" fill="#D8F2F2"/>
  <path d="M49.6666 39.8549C47.8005 39.8549 46.291 41.358 46.291 43.216V45.5273H53.0422V43.216C53.0346 41.358 51.5251 39.8549 49.6666 39.8549ZM49.6666 39.8549C51.0826 39.8549 52.2305 38.712 52.2305 37.302C52.2305 35.892 51.0826 34.749 49.6666 34.749C48.2506 34.749 47.1027 35.892 47.1027 37.302C47.1027 38.712 48.2506 39.8549 49.6666 39.8549Z" stroke="#1B1B1B" stroke-miterlimit="10" stroke-linecap="round" stroke-linejoin="round"/>
  <rect x="40.9043" y="31.4941" width="17.149" height="18.2128" rx="1" stroke="black" stroke-width="2"/>
  <path d="M40.8672 63.1367H58.1672" stroke="#1B1B1B" stroke-width="3" stroke-miterlimit="10" stroke-linecap="round" stroke-linejoin="round"/>
  <path d="M40.8672 57.3701H58.1672" stroke="#1B1B1B" stroke-width="3" stroke-miterlimit="10" stroke-linecap="round" stroke-linejoin="round"/>
</svg>
