<svg width="85" height="85" viewBox="0 0 85 85" fill="none" xmlns="http://www.w3.org/2000/svg">
<path fill-rule="evenodd" clip-rule="evenodd" d="M44.2133 70.6349C54.0232 69.967 64.037 67.0676 69.7527 59.8536C75.7222 52.3192 76.1136 42.6816 73.2234 34.0202C70.1959 24.9474 64.3976 15.8815 54.1764 13.174C44.2812 10.5528 34.4964 16.2099 25.7867 21.4546C17.6102 26.3784 9.39066 32.3141 8.08926 40.9265C6.78435 49.5622 12.379 57.4479 19.4671 63.2772C26.1455 68.7695 34.9981 71.2623 44.2133 70.6349Z" fill="#00A88F"/>
<path d="M55.8647 20.2855L30.8507 20.2651C28.8106 20.2651 27.1562 21.9229 27.1562 23.9735L27.1055 59.5776C27.1004 61.6281 28.7548 63.2961 30.7949 63.2961L58.255 63.3165C60.2951 63.3165 61.9495 61.6587 61.9495 59.6082L62.0002 26.5494L55.8647 20.2855Z" fill="white"/>
<path d="M55.8647 26.5501L55.8647 20.2855L61.9495 26.5501H55.8647Z" fill="white"/>
<path d="M55.8647 20.2855L30.8507 20.2651C28.8106 20.2651 27.1562 21.9229 27.1562 23.9735L27.1055 59.5776C27.1004 61.6281 28.7548 63.2961 30.7949 63.2961L58.255 63.3165C60.2951 63.3165 61.9495 61.6587 61.9495 59.6082L62.0002 26.5494L55.8647 20.2855ZM55.8647 20.2855L55.8647 26.5501H61.9495L55.8647 20.2855Z" stroke="#121111" stroke-width="3" stroke-miterlimit="10" stroke-linecap="round" stroke-linejoin="round"/>
<path d="M44.4382 35.6607C42.7686 35.6607 41.418 37.0056 41.418 38.668V40.736H47.4585V38.668C47.4517 37.0056 46.1011 35.6607 44.4382 35.6607Z" fill="#D8F2F2"/>
<path d="M44.4382 35.6607C45.7052 35.6607 46.7323 34.6381 46.7323 33.3765C46.7323 32.115 45.7052 31.0923 44.4382 31.0923C43.1713 31.0923 42.1442 32.115 42.1442 33.3765C42.1442 34.6381 43.1713 35.6607 44.4382 35.6607Z" fill="#D8F2F2"/>
<path d="M44.4382 35.6607C42.7686 35.6607 41.418 37.0056 41.418 38.668V40.736H47.4585V38.668C47.4517 37.0056 46.1011 35.6607 44.4382 35.6607ZM44.4382 35.6607C45.7052 35.6607 46.7323 34.6381 46.7323 33.3765C46.7323 32.115 45.7052 31.0923 44.4382 31.0923C43.1713 31.0923 42.1442 32.115 42.1442 33.3765C42.1442 34.6381 43.1713 35.6607 44.4382 35.6607Z" stroke="#121111" stroke-miterlimit="10" stroke-linecap="round" stroke-linejoin="round"/>
<rect x="36.7051" y="28.2852" width="15.1333" height="16.0851" rx="1" stroke="black" stroke-width="2"/>
<path d="M36.5645 56.4902H52.0434" stroke="#121111" stroke-width="3" stroke-miterlimit="10" stroke-linecap="round" stroke-linejoin="round"/>
<path d="M36.5645 51.3311H52.0434" stroke="#121111" stroke-width="3" stroke-miterlimit="10" stroke-linecap="round" stroke-linejoin="round"/>
</svg>
