<svg xmlns="http://www.w3.org/2000/svg" width="85" height="85" viewBox="0 0 85 85" fill="none">
  <path fill-rule="evenodd" clip-rule="evenodd" d="M45.143 70.4327C54.9529 69.7649 64.9666 66.8655 70.6824 59.6514C76.6519 52.1171 77.0432 42.4795 74.1531 33.8181C71.1256 24.7452 65.3273 15.6794 55.1061 12.9718C45.2108 10.3507 35.4261 16.0078 26.7164 21.2525C18.5399 26.1762 10.3203 32.1119 9.01895 40.7244C7.71403 49.3601 13.3086 57.2458 20.3968 63.075C27.0752 68.5674 35.9277 71.0601 45.143 70.4327Z" fill="#00A88F"/>
  <path d="M48.8284 53.684H46.9111V69.981H48.8284V53.684Z" fill="white" stroke="#121111" stroke-width="2.4391" stroke-miterlimit="10" stroke-linecap="round" stroke-linejoin="round"/>
  <path d="M66.9552 36.0801L50.3964 52.6389C49.0027 54.0326 46.7351 54.0326 45.3414 52.6389L28.7826 36.0801C27.3889 34.6864 27.3889 32.4188 28.7826 31.0251L45.3414 14.4663C46.7351 13.0726 49.0027 13.0726 50.3964 14.4663L66.9552 31.0251C68.3489 32.4188 68.3489 34.6786 66.9552 36.0801Z" fill="#FFC240" stroke="#121111" stroke-width="3" stroke-miterlimit="10" stroke-linecap="round" stroke-linejoin="round"/>
  <path d="M46.5155 42.6614C46.1386 42.3432 45.9502 41.9613 45.9502 41.5079C45.9502 41.0783 46.1386 40.6964 46.5155 40.3861C46.8923 40.0759 47.3352 39.9088 47.8533 39.9088C48.3904 39.9088 48.8425 40.0679 49.2194 40.3861C49.5963 40.7043 49.7848 41.0783 49.7848 41.5079C49.7848 41.9613 49.5963 42.3432 49.2194 42.6614C48.8425 42.9796 48.3904 43.1388 47.8533 43.1388C47.3352 43.1388 46.8923 42.9796 46.5155 42.6614ZM47.0808 37.5778C46.883 37.4346 46.7793 37.2437 46.7604 37.005L46.1857 28.055V25.374C46.1857 24.9762 46.3459 24.642 46.6662 24.3716C46.9866 24.1011 47.3823 23.9658 47.8533 23.9658C48.3244 23.9658 48.7107 24.1011 49.0216 24.3716C49.3325 24.642 49.4832 24.9762 49.4832 25.374V28.0629L48.9085 37.013C48.8897 37.2516 48.7861 37.4346 48.6071 37.5858C48.4281 37.729 48.1737 37.8006 47.8533 37.8006C47.533 37.7926 47.2693 37.721 47.0808 37.5778Z" fill="#121111" stroke="#121111" stroke-width="1.5494" stroke-miterlimit="10"/>
</svg>
