<svg width="85" height="85" viewBox="0 0 85 85" fill="none" xmlns="http://www.w3.org/2000/svg">
<path fill-rule="evenodd" clip-rule="evenodd" d="M45.143 70.4327C54.9529 69.7649 64.9666 66.8655 70.6824 59.6514C76.6519 52.1171 77.0432 42.4795 74.1531 33.8181C71.1256 24.7452 65.3273 15.6794 55.1061 12.9718C45.2108 10.3507 35.4261 16.0078 26.7164 21.2525C18.5399 26.1762 10.3203 32.1119 9.01895 40.7244C7.71403 49.3601 13.3086 57.2458 20.3968 63.075C27.0752 68.5674 35.9277 71.0601 45.143 70.4327Z" fill="#00A88F"/>
<rect x="20.5742" y="29.6006" width="52.4737" height="30.8484" rx="2.5" fill="white" stroke="#121111" stroke-width="3"/>
<path d="M36.9385 28.1007V23.5789C36.9385 21.922 38.2816 20.5789 39.9385 20.5789H54.6236C56.2804 20.5789 57.6236 21.922 57.6236 23.5789V28.1007" stroke="#121111" stroke-width="3"/>
<line x1="29.9775" y1="29.981" x2="29.9775" y2="60.0684" stroke="black" stroke-width="3"/>
<line x1="64.7656" y1="30.9214" x2="64.7656" y2="61.0088" stroke="black" stroke-width="3"/>
</svg>
